<?xml version="1.0" encoding="UTF-8"?>
<svg width="340px" height="340px" viewBox="0 0 340 340" version="1.1" xmlns="http://www.w3.org/2000/svg" xmlns:xlink="http://www.w3.org/1999/xlink">
    <title>images/main-why-trust-us-everything</title>
    <g id="images/main-why-trust-us-everything" stroke="none" stroke-width="1" fill="none" fill-rule="evenodd">
        <path d="M170,22 C251.185858,22 317,87.703249 317,168.752314 C317,209.520607 300.347929,246.406154 273.463557,273 L66.5364428,273 C39.6520712,246.406154 23,209.520607 23,168.752314 C23,87.703249 88.8141418,22 170,22 Z" id="Path" fill-opacity="0.5" fill="#FB7268"></path>
        <path d="M172.846123,59 C198.352427,59 219.028969,79.607541 219.028969,105.028726 C219.028969,109.391482 218.419982,113.612462 217.282108,117.611831 C226.156055,123.522524 232,133.599072 232,145.036309 C232,163.241016 217.192599,178 198.925936,178 C187.182389,178 176.867934,171.899237 170.999262,162.704337 C165.132526,171.899237 154.818254,178 143.074064,178 C124.807401,178 110,163.241016 110,145.036309 C110,132.27439 117.276054,121.206608 127.9193,115.72878 C127.097454,112.295142 126.663278,108.712474 126.663278,105.028726 C126.663278,79.607541 147.33982,59 172.846123,59 Z" id="Combined-Shape" fill="#FFFFFF"></path>
        <path d="M172.245642,60 C173.851823,60 175.436609,60.0857555 177,60.2478255 C154.246434,62.6072819 136.508716,81.7063692 136.508716,104.922507 C136.508716,106.993221 136.815993,110.015531 137.430547,113.989436 C137.429194,113.98936 137.427842,113.989283 137.426489,113.989206 C137.472482,114.21598 137.502545,114.551149 137.502545,115.049515 C126.237044,119.672885 117.786735,131.420856 117.786735,145.019341 C117.786735,161.279319 129.213769,174.695579 144,176.725389 C142.724533,176.899916 141.426484,177 140.106632,177 C123.479617,177 110,162.682154 110,145.019341 C110,131.889417 117.7053,120.684158 128.460787,115.788854 C127.486849,111.171158 127,107.549201 127,104.922507 C127,80.1124184 147.256735,60 172.245642,60 Z" id="Combined-Shape" fill="#EDEEF2"></path>
        <path d="M172.846123,58.5 C147.064051,58.5 126.163278,79.3310238 126.163278,105.028726 L126.169834,105.816376 C126.222257,108.963324 126.588787,112.065547 127.259127,115.090546 L127.345,115.464 L126.886875,115.711571 C116.2677,121.543476 109.5,132.689785 109.5,145.036309 C109.5,163.517876 124.531975,178.5 143.074064,178.5 L143.571521,178.496374 C154.667014,178.334569 164.78389,172.767155 170.885201,163.78658 L170.999,163.616 L171.113537,163.786652 C177.307836,172.901357 187.636657,178.5 198.925936,178.5 C217.468025,178.5 232.5,163.517876 232.5,145.036309 L232.496212,144.530297 C232.332236,133.58106 226.853723,123.580819 217.971639,117.474736 L217.859,117.398 L217.763022,117.748658 C218.930508,113.645209 219.528969,109.376432 219.528969,105.028726 C219.528969,79.3310238 198.628196,58.5 172.846123,58.5 Z M172.846123,59.5 C198.076658,59.5 218.528969,79.8840583 218.528969,105.028726 C218.528969,109.283653 217.943418,113.460345 216.801194,117.475005 L216.70139,117.825792 L217.004929,118.027971 C225.992437,124.014303 231.5,134.059089 231.5,145.036309 C231.5,162.964846 216.916482,177.5 198.925936,177.5 C187.649397,177.5 177.362087,171.744112 171.420731,162.435332 L170.999192,161.774875 L170.577752,162.435396 C164.638484,171.743975 154.351375,177.5 143.074064,177.5 C125.083518,177.5 110.5,162.964846 110.5,145.036309 C110.5,132.913139 117.226198,121.982932 127.746778,116.383422 L128.496869,115.993856 L128.405565,115.612392 C127.582736,112.174647 127.163278,108.630088 127.163278,105.028726 C127.163278,79.8840583 147.615589,59.5 172.846123,59.5 Z" id="Combined-Shape" fill="#212446" fill-rule="nonzero"></path>
        <path d="M201.31093,163 C209.429076,163 215.754761,168.743134 219.52694,175.240995 L260.958825,261.324866 C262.861437,263.913787 264,267.100074 264,270.560989 C264,271.39068 263.935359,272.205275 263.810842,273 L79.1891576,273 C79.0646409,272.205275 79,271.39068 79,270.560989 C79,268.507292 79.4055568,266.550817 80.1255453,264.75471 L80.0264092,264.755712 L80.3558616,264.210465 C80.8835861,263.025756 81.5545073,261.922232 82.3465948,260.915931 L124.633654,174.321893 C127.401454,167.674691 133.951447,163 141.595943,163 L201.31093,163 Z" id="Path" fill="#B1A6B8"></path>
        <path d="M200.810709,163 C208.375835,163 215.046192,167.865878 219.459493,175.433663 L219.477656,175.467786 L260.861485,261.081784 C262.887857,263.82661 264,267.116979 264,270.571579 C264,271.39694 263.937457,272.207755 263.816835,273 L262.802999,273 C262.931721,272.209478 262.998633,271.39831 262.998633,270.571579 C262.998633,267.332459 261.956287,264.248592 260.007092,261.593896 L218.583962,175.918284 C214.333854,168.639893 207.964742,163.997742 200.810709,163.997742 L141.096164,163.997742 C133.816149,163.997742 127.3503,168.376846 124.583825,174.988439 L82.2970788,261.189377 L82.2405424,261.279036 C81.4672985,262.256945 80.8202934,263.321197 80.284962,264.50805 L80.2699435,264.532793 L80.090897,264.977424 C79.3750843,266.755022 79.0013675,268.641194 79.0013675,270.571579 C79.0013675,271.39831 79.068279,272.209478 79.1970007,273 L78.1831654,273 C78.0625433,272.207755 78,271.39694 78,270.571579 C78,268.761355 78.3081244,266.987436 78.9009501,265.297854 L78.6336817,265.300544 L79.0986586,264.534491 L79.3992443,264.046737 C79.9323433,262.855387 80.6111411,261.734602 81.4207116,260.703774 L123.671847,174.577454 C126.580143,167.624491 133.408312,163 141.096164,163 L200.810709,163 Z" id="Path" fill="#212446" fill-rule="nonzero"></path>
        <path d="M172.500494,175 L172.500494,175 C166.148753,175 161,169.824412 161,163.439565 L161,151.560435 C161,145.175588 166.148753,140 172.500494,140 C178.851247,140 184,145.175588 184,151.560435 L184,163.439565 C184,169.824412 178.851247,175 172.500494,175" id="Fill-17" fill="#FFFFFF"></path>
        <path d="M172.500773,182 C162.282779,182 154,173.717576 154,163.5 L154,163 L191,163 L191,163.5 C191,173.717331 182.717466,182 172.500773,182 Z M172.500773,181 C181.997964,181 189.728336,173.433825 189.992995,164 L155.007005,164 C155.271666,173.434043 163.002287,181 172.500773,181 Z" id="Stroke-19-Copy" fill="#212545" fill-rule="nonzero"></path>
        <path d="M173.000494,175 L173.000494,175 C166.648753,175 161.5,169.824412 161.5,163.439565 L161.5,151.560435 C161.5,145.175588 166.648753,140 173.000494,140 C179.351247,140 184.5,145.175588 184.5,151.560435 L184.5,163.439565 C184.5,169.824412 179.351247,175 173.000494,175 Z" id="Stroke-19" fill="#FFFFFF"></path>
        <path d="M173.000494,176 C166.372027,176 161,170.599974 161,163.939565 L161,152.060435 C161,145.400026 166.372027,140 173.000494,140 C179.628133,140 185,145.400186 185,152.060435 L185,163.939565 C185,170.599814 179.628133,176 173.000494,176 Z M173.000494,175 C179.074668,175 184,170.048703 184,163.939565 L184,152.060435 C184,145.951297 179.074668,141 173.000494,141 C166.925478,141 162,145.95115 162,152.060435 L162,163.939565 C162,170.04885 166.925478,175 173.000494,175 Z" id="Stroke-19" fill="#212545" fill-rule="nonzero"></path>
        <polygon id="Fill-21" fill="#212545" points="161 156 161 163 178 157.697726"></polygon>
        <path d="M172,160 L172,160 C155.984347,160 143,147.004472 143,130.972759 L143,99.0272413 C143,82.9955275 155.984347,70 172,70 C188.016668,70 201,82.9955275 201,99.0272413 L201,130.972759 C201,147.004472 188.016668,160 172,160" id="Fill-23" fill="#FFFFFF"></path>
        <path d="M172,160 C155.98319,160 143,146.923867 143,130.795284 L143,99.2047164 C143,83.0761328 155.98319,70 172,70 C188.017466,70 201,83.0757884 201,99.2047164 L201,130.795284 C201,146.924212 188.017466,160 172,160 Z M172,159 C187.463572,159 200,146.373523 200,130.795284 L200,99.2047164 C200,83.6264772 187.463572,71 172,71 C156.537078,71 144,83.6268271 144,99.2047164 L144,130.795284 C144,146.373173 156.537078,159 172,159 Z" id="Stroke-25" fill="#212545" fill-rule="nonzero"></path>
        <path d="M160,134 C162.143,138.727177 166.704,142 172,142 C177.297,142 181.857,138.727177 184,134 L160,134 Z" id="Fill-27" fill="#FFFFFF"></path>
        <path d="M206,102 C205.478686,83.7597755 190.577702,69 172.423757,69 C163.715506,69 155.755707,72.3964486 149.7721,77.9435091 C147.020853,80.4947468 144.249186,85.7965632 144,89 C143.964353,89.4655379 145.92233,88.0353183 145.933238,88.5 C146.097976,95.517912 150.965979,102 159.157758,102 L206,102 Z" id="Fill-31" fill="#FFFFFF"></path>
        <path d="M226.864833,185.846816 L195.566255,274.469428 C195.481654,274.708979 195.607265,274.971756 195.846816,275.056357 C196.086366,275.140959 196.349143,275.015347 196.433745,274.775797 L227.732323,186.153184 C227.816924,185.913634 227.691313,185.650857 227.451762,185.566255 C227.212211,185.481654 226.949434,185.607265 226.864833,185.846816 Z" id="Stroke-81-Copy" fill="#212545" fill-rule="nonzero" transform="translate(211.649289, 230.311306) scale(-1, 1) rotate(-9.000000) translate(-211.649289, -230.311306) "></path>
        <path d="M144.864833,185.846816 L113.566255,274.469428 C113.481654,274.708979 113.607265,274.971756 113.846816,275.056357 C114.086366,275.140959 114.349143,275.015347 114.433745,274.775797 L145.732323,186.153184 C145.816924,185.913634 145.691313,185.650857 145.451762,185.566255 C145.212211,185.481654 144.949434,185.607265 144.864833,185.846816 Z" id="Stroke-81-Copy-2" fill="#212545" fill-rule="nonzero" transform="translate(129.649289, 230.311306) rotate(-9.000000) translate(-129.649289, -230.311306) "></path>
        <path d="M237.808459,200 L107.190472,200 C101.562579,200 97,204.549068 97,210.160295 L97,293.83864 C97,299.450932 101.562579,304 107.190472,304 L237.808459,304 C243.437421,304 248,299.450932 248,293.83864 L248,210.160295 C248,204.549068 243.437421,200 237.808459,200" id="Fill-83" fill="#EDEEF2"></path>
        <path d="M197,200 L107.138367,200 C101.53925,200 97,204.54986 97,210.162064 L97,273 L197,200 Z" id="Fill-83" fill="#DCDEE5"></path>
        <path d="M237.34285,200 L106.656081,200 C100.771344,200 96,204.758336 96,210.628393 L96,294.370541 C96,300.241491 100.771172,305 106.656081,305 L237.34285,305 C243.228656,305 248,300.241664 248,294.370541 L248,210.628393 C248,204.758164 243.228483,200 237.34285,200 Z M237.34285,200.920701 C242.720738,200.920701 247.079516,205.267281 247.079516,210.628393 L247.079516,294.370541 C247.079516,299.732562 242.720896,304.079299 237.34285,304.079299 L106.656081,304.079299 C101.278946,304.079299 96.9204845,299.732405 96.9204845,294.370541 L96.9204845,210.628393 C96.9204845,205.267438 101.279104,200.920701 106.656081,200.920701 L237.34285,200.920701 Z" id="Stroke-85" fill="#212545" fill-rule="nonzero"></path>
        <path d="M183,252.999433 C183,259.074695 178.074695,264 171.999433,264 C165.924171,264 161,259.074695 161,252.999433 C161,246.925305 165.924171,242 171.999433,242 C178.074695,242 183,246.925305 183,252.999433" id="Fill-87" fill="#FFFFFF"></path>
        <path d="M183,252.999457 C183,259.074713 178.074713,264 171.999457,264 C165.924393,264 161,259.074905 161,252.999457 C161,246.924919 165.924568,242 171.999457,242 C178.074538,242 183,246.925112 183,252.999457 Z M182.076642,252.999457 C182.076642,247.435083 177.564596,242.923358 171.999457,242.923358 C166.43454,242.923358 161.923358,247.434861 161.923358,252.999457 C161.923358,258.564979 166.434379,263.076642 171.999457,263.076642 C177.564757,263.076642 182.076642,258.564757 182.076642,252.999457 Z" id="Stroke-89" fill="#212545" fill-rule="nonzero"></path>
        <path d="M291.966797,181.896641 C291.94081,180.87761 291.129643,179.998606 289.996655,179.85931 C284.715602,179.206479 279.507174,178.070707 274.401417,176.387568 C269.319792,174.712469 263.697195,172.374097 257.632819,169.294346 C256.862837,168.903086 256.138564,168.900685 255.369394,169.294346 C249.347015,172.372531 243.764675,174.705995 238.642909,176.387568 C233.535528,178.064338 228.329652,179.207315 223.090596,179.85931 C221.957492,180.000172 221.162451,180.87761 221.036344,181.896641 C220.533773,201.25248 225.244156,217.089797 235.122013,229.400657 C240.503186,236.106691 247.237424,241.54977 255.369394,245.700135 C255.998072,246.115516 256.983723,246.084086 257.716929,245.700135 C265.787295,241.48054 272.512601,236.076931 277.88136,229.400657 C287.772327,217.097838 292.444309,201.253211 291.966797,181.896641 Z" id="Shape-Copy" fill="#FB7268" fill-rule="nonzero"></path>
        <path d="M289.584515,178.862296 C284.321459,178.202425 279.227666,177.058206 274.307006,175.412985 C269.160968,173.692497 263.632125,171.33048 257.846142,168.350266 C256.940435,167.883484 256.053629,167.882761 255.151593,168.350998 C249.378417,171.34383 243.890571,173.695764 238.734247,175.412791 C233.797191,177.056724 228.702582,178.205426 223.497722,178.86239 C222.183584,179.028084 221.192665,180.056209 221.036473,181.336321 C220.535068,200.832705 225.203568,216.789249 235.02755,229.207318 C240.395779,235.99249 247.09971,241.471638 255.152102,245.639913 C255.871699,246.125983 257.03581,246.11485 257.934683,245.637443 C265.993443,241.363914 272.663165,235.904027 277.972409,229.207743 C287.78592,216.827442 292.441331,200.881024 291.967124,181.384692 C291.934798,180.099014 290.929617,179.030025 289.584515,178.862296 Z M277.183346,228.586158 C271.962045,235.171523 265.400709,240.542685 257.462058,244.75252 C256.872505,245.065642 256.103026,245.073001 255.664394,244.77906 C247.688573,240.646826 241.096179,235.258837 235.817237,228.586521 C226.147641,216.363605 221.546139,200.636051 222.03834,181.40963 C222.136243,180.626166 222.774343,179.964107 223.623992,179.856979 C228.893736,179.191825 234.052761,178.028598 239.052891,176.363663 C244.260932,174.629414 249.797079,172.25678 255.615857,169.240308 C256.227178,168.922978 256.768425,168.923419 257.384362,169.24086 C263.214844,172.243995 268.790851,174.626161 273.987196,176.363468 C278.971886,178.030097 284.130761,179.188935 289.459345,179.857022 C290.31817,179.964115 290.941953,180.627425 290.961716,181.409197 C291.430493,200.683756 286.841846,216.401412 277.183346,228.586158 Z" id="Shape-Copy" fill="#212446" fill-rule="nonzero"></path>
        <path d="M255.375157,175.293839 C256.125444,174.901871 256.869087,174.902481 257.622186,175.293105 C262.247046,177.690557 266.665898,179.590494 270.778163,180.97419 C274.708745,182.296821 278.777735,183.216709 282.982064,183.747226 C284.105724,183.888242 284.946606,184.788247 284.97367,185.871573 C285.353578,201.591257 281.622619,214.453198 273.756362,224.440677 C269.500121,229.843346 264.153367,234.248357 257.694123,237.695672 C256.944555,238.096339 255.974206,238.105678 255.375664,237.698148 C248.92097,234.335449 243.546541,229.91469 239.242972,224.440253 C231.368399,214.422404 227.626946,201.552281 228.029302,185.823484 C228.159469,184.749816 228.986235,183.886497 230.083015,183.74732 C234.240887,183.219137 238.310595,182.295629 242.254388,180.973995 C246.374745,179.593125 250.760685,177.701362 255.375157,175.293839 Z M257.161791,176.180777 C256.697484,175.939947 256.298581,175.939619 255.838025,176.180225 C251.178139,178.611442 246.744084,180.523958 242.572194,181.922098 C238.565518,183.264805 234.431574,184.20289 230.208989,184.739294 C229.574595,184.819796 229.098027,185.317434 229.025559,185.896363 C228.632298,201.356661 232.307521,213.998961 240.029223,223.822331 C244.244167,229.184031 249.507765,233.513624 255.886324,236.84026 C256.204931,237.05514 256.781594,237.04959 257.222931,236.813682 C263.562722,233.430119 268.801777,229.113838 272.970729,223.821969 C280.683496,214.029371 284.348456,201.395026 283.973914,185.895933 C283.959282,185.314461 283.496881,184.819618 282.857188,184.739338 C278.587502,184.200575 274.453611,183.266014 270.459196,181.921903 C266.296802,180.52134 261.830967,178.601202 257.161791,176.180777 Z M268.285264,196.294281 C268.67153,195.907848 269.304657,195.901125 269.699395,196.279264 C270.063768,196.628315 270.097648,197.183285 269.796897,197.57054 L269.714735,197.663643 L251.386332,216 L244.285265,208.895852 C243.899,208.509419 243.905868,207.889611 244.300605,207.511472 C244.664978,207.162421 245.232477,207.1413 245.621436,207.444056 L245.714736,207.52649 L251.386332,213.200547 L268.285264,196.294281 Z" id="Shape" fill="#FFFFFF" fill-rule="nonzero"></path>
        <path d="M184.499446,134 C184.862857,134 185.104864,134.375442 184.954816,134.706445 C182.677521,139.73009 177.87418,143 172.5,143 C167.126471,143 162.322318,139.729734 160.045184,134.706445 C159.906678,134.400904 160.102231,134.057497 160.418968,134.006474 L160.500554,134 L184.499446,134 Z M183.699674,135 L161.300335,135 C163.53339,139.271118 167.784223,142 172.5,142 C177.109211,142 181.273127,139.394041 183.544308,135.288829 L183.699674,135 Z M145.482204,88 C145.758171,87.9904914 145.989857,88.2062369 145.999689,88.4822041 C146.117116,91.778284 147.48715,94.7982888 149.708613,97.0458798 C151.51059,96.3693471 153.462121,96 155.5,96 C160.141055,96 164.33454,97.9159933 167.332557,101.00021 L175.667201,101.00008 C178.665131,97.9159051 182.858609,96 187.5,96 C192.141055,96 196.33454,97.9159933 199.332557,101.00021 L206.5,101 C206.776142,101 207,101.223858 207,101.5 C207,101.74546 206.823125,101.949608 206.589876,101.991944 L206.5,102 L200.228859,102.00022 C202.584691,104.852955 204,108.511117 204,112.5 C204,121.61244 196.61244,129 187.5,129 C179.782828,129 173.303525,123.70257 171.499623,116.545822 C169.696292,123.702336 163.216607,129 155.5,129 C146.386901,129 139,121.61278 139,112.5 C139,105.804595 142.986864,100.041265 148.716318,97.4542833 C146.489023,95.0679272 145.121737,91.9306722 145,88.5178077 C144.990491,88.2418405 145.206237,88.0101548 145.482204,88 Z M149.479395,98.2139469 L149.261104,98.3065441 C143.807323,100.706964 140,106.158404 140,112.5 C140,121.060505 146.939196,128 155.5,128 C164.060155,128 171,121.060155 171,112.5 C171,108.44908 169.446161,104.761258 166.901997,101.999954 L159.381118,102 C155.473426,102 152.021934,100.552695 149.479395,98.2139469 Z M198.901997,101.999816 L176.097773,101.999816 C173.553694,104.761084 172,108.448914 172,112.5 C172,121.060505 178.939196,128 187.5,128 C196.060155,128 203,121.060155 203,112.5 C203,108.44908 201.446161,104.761258 198.901997,101.999816 Z M175.267074,126.068637 C175.511442,125.915467 175.813786,126.027262 175.942377,126.318338 C176.070968,126.609415 175.977112,126.969547 175.732744,127.122717 C175.54136,127.242677 175.196164,127.410096 174.706766,127.573511 C173.90704,127.840548 172.983238,128 171.946018,128 C170.861091,128 169.94448,127.839896 169.191039,127.570466 C168.722842,127.403039 168.40566,127.228783 168.233469,127.099518 C167.999857,126.924145 167.929832,126.5564 168.077064,126.278137 C168.224295,125.999873 168.533029,125.916463 168.766641,126.091836 C168.863786,126.164763 169.098647,126.293794 169.478571,126.429654 C170.138663,126.665703 170.958405,126.808886 171.946018,126.808886 C172.889433,126.808886 173.722762,126.665051 174.436848,126.42661 C174.855738,126.286738 175.135881,126.150869 175.267074,126.068637 Z M157,112 C158.105023,112 159,112.89589 159,114 C159,115.10411 158.105023,116 157,116 C155.894977,116 155,115.10411 155,114 C155,112.89589 155.894977,112 157,112 Z M185,112 C186.105023,112 187,112.89589 187,114 C187,115.10411 186.105023,116 185,116 C183.894977,116 183,115.10411 183,114 C183,112.89589 183.894977,112 185,112 Z M157,110 C159.773395,110 162,112.474006 162,115.5 C162,115.776142 161.776142,116 161.5,116 C161.223858,116 161,115.776142 161,115.5 C161,113.004172 159.196245,111 157,111 C154.803755,111 153,113.004172 153,115.5 C153,115.776142 152.776142,116 152.5,116 C152.223858,116 152,115.776142 152,115.5 C152,112.474006 154.226605,110 157,110 Z M185.000474,110 C187.773973,110 190,112.473823 190,115.5 C190,115.776142 189.776142,116 189.5,116 C189.223858,116 189,115.776142 189,115.5 C189,113.003953 187.196777,111 185.000474,111 C182.803351,111 181,113.003804 181,115.5 C181,115.776142 180.776142,116 180.5,116 C180.223858,116 180,115.776142 180,115.5 C180,112.473646 182.226192,110 185.000474,110 Z M174.770928,102.000079 L168.228859,102.00022 C169.760257,103.854628 170.894229,106.049377 171.500358,108.454073 C172.105378,106.04982 173.239377,103.854723 174.770928,102.000079 Z M187.5,97 C183.50103,97 179.856029,98.5139755 177.106844,101.00008 L197.892898,101.000202 C195.143647,98.5140518 191.498667,97 187.5,97 Z M155.5,97 C153.763504,97 152.093753,97.2854763 150.535113,97.8120625 C152.770344,99.7145404 155.692358,100.905834 158.984326,100.994658 L159.381118,101 L165.892898,101.000202 C163.143647,98.5140518 159.498667,97 155.5,97 Z" id="Shape" fill="#212545" fill-rule="nonzero"></path>
    </g>
</svg>