<?xml version="1.0" encoding="UTF-8"?>
<svg width="364px" height="234px" viewBox="0 0 364 234" version="1.1" xmlns="http://www.w3.org/2000/svg" xmlns:xlink="http://www.w3.org/1999/xlink">
    <title>Images/unsure</title>
    <g id="Images/unsure" stroke="none" stroke-width="1" fill="none" fill-rule="evenodd">
        <g id="Group-6">
            <circle id="Oval" fill="#FC958E" cx="182" cy="117" r="117"></circle>
            <path d="M183.846123,10 C209.352427,10 230.028969,30.607541 230.028969,56.0287261 C230.028969,60.3914822 229.419982,64.6124618 228.282108,68.6118315 C237.156055,74.5225238 243,84.5990718 243,96.0363094 C243,114.241016 228.192599,129 209.925936,129 C198.182389,129 187.867934,122.899237 181.999262,113.704337 C176.132526,122.899237 165.818254,129 154.074064,129 C135.807401,129 121,114.241016 121,96.0363094 C121,83.2743896 128.276054,72.2066077 138.9193,66.7287804 C138.097454,63.2951424 137.663278,59.7124739 137.663278,56.0287261 C137.663278,30.607541 158.33982,10 183.846123,10 Z" id="Combined-Shape" fill="#FFFFFF"></path>
            <path d="M183.245642,11 C184.851823,11 186.436609,11.0857555 188,11.2478255 C165.246434,13.6072819 147.508716,32.7063692 147.508716,55.9225073 C147.508716,57.9932208 147.815993,61.0155305 148.430547,64.9894363 C148.429194,64.9893596 148.427842,64.9892829 148.426489,64.9892064 C148.472482,65.2159797 148.502545,65.5511489 148.502545,66.0495149 C137.237044,70.6728853 128.786735,82.4208559 128.786735,96.0193407 C128.786735,112.279319 140.213769,125.695579 155,127.725389 C153.724533,127.899916 152.426484,128 151.106632,128 C134.479617,128 121,113.682154 121,96.0193407 C121,82.889417 128.7053,71.6841585 139.460787,66.7888544 C138.486849,62.1711579 138,58.5492007 138,55.9225073 C138,31.1124184 158.256735,11 183.245642,11 Z" id="Combined-Shape" fill="#EDEEF2"></path>
            <path d="M183.846123,10 C209.352427,10 230.028969,30.607541 230.028969,56.0287261 C230.028969,60.3914822 229.419982,64.6124618 228.282108,68.6118315 C237.156055,74.5225238 243,84.5990718 243,96.0363094 C243,114.241016 228.192599,129 209.925936,129 C198.182389,129 187.867934,122.899237 181.999262,113.704337 C176.132526,122.899237 165.818254,129 154.074064,129 C135.807401,129 121,114.241016 121,96.0363094 C121,83.2743896 128.276054,72.2066077 138.9193,66.7287804 C138.097454,63.2951424 137.663278,59.7124739 137.663278,56.0287261 C137.663278,30.607541 158.33982,10 183.846123,10 Z" id="Combined-Shape" stroke="#212446"></path>
            <rect id="Rectangle" stroke="#212545" stroke-width="0.978118907" fill="#FFFFFF" fill-rule="nonzero" x="173.534116" y="90.7909343" width="22.7803893" height="34.4786915" rx="11.3853041"></rect>
            <g id="Group" transform="translate(0.000000, 84.000000)" fill="#FFFFFF" stroke="#242648" stroke-width="0.972">
                <path d="M11.8824379,0 C13.4929002,-2.95837131e-16 14.7984379,1.30553767 14.7984379,2.916 L14.7984379,18.468 L14.7984379,18.468 L8.96643789,18.468 L8.96643789,2.916 C8.96643789,1.30553767 10.2719756,2.95837131e-16 11.8824379,0 Z" id="Rectangle"></path>
                <path d="M20.5679008,5.31194413 C22.0995415,5.80960436 22.9377483,7.45467779 22.4400881,8.98631849 L17.6342558,23.7771494 L17.6342558,23.7771494 L12.0876942,21.9749623 L16.8935265,7.18413137 C17.3911867,5.65249068 19.0362601,4.8142839 20.5679008,5.31194413 Z" id="Rectangle"></path>
                <path d="M34.9536191,15.5275565 C36.2226807,14.5360569 38.0552277,14.7610654 39.0467273,16.030127 L48.6214945,28.2852702 L48.6214945,28.2852702 L44.0258158,31.875808 L34.4510486,19.6206647 C33.459549,18.3516031 33.6845574,16.5190561 34.9536191,15.5275565 Z" id="Rectangle"></path>
                <path d="M61.2852106,41.5255085 L52.9775664,32.1743161 C48.8215317,27.4962293 42.960298,24.683985 36.7106464,24.3693803 L25.6952869,23.814872 C22.6348761,23.6608123 19.7580127,22.3086096 17.6865396,20.0505468 L6.0373644,7.35206224 C5.01041432,6.23260875 3.29135648,6.1011968 2.10618202,7.05154626 C0.940176781,7.98652461 0.746132453,9.6867677 1.67148433,10.8604272 L16.9436866,30.2307508 C19.0570831,32.9112531 21.7814601,35.0468817 24.8890606,36.4590986 L36.0377579,41.5255085 L36.0377579,41.5255085 L61.2852106,41.5255085 Z" id="Path"></path>
            </g>
            <g id="Group" transform="translate(333.000000, 105.000000) scale(-1, 1) translate(-333.000000, -105.000000) translate(302.000000, 84.000000)" fill="#FFFFFF" stroke="#242648" stroke-width="0.972">
                <path d="M11.8824379,0 C13.4929002,-2.95837131e-16 14.7984379,1.30553767 14.7984379,2.916 L14.7984379,18.468 L14.7984379,18.468 L8.96643789,18.468 L8.96643789,2.916 C8.96643789,1.30553767 10.2719756,2.95837131e-16 11.8824379,0 Z" id="Rectangle"></path>
                <path d="M20.5679008,5.31194413 C22.0995415,5.80960436 22.9377483,7.45467779 22.4400881,8.98631849 L17.6342558,23.7771494 L17.6342558,23.7771494 L12.0876942,21.9749623 L16.8935265,7.18413137 C17.3911867,5.65249068 19.0362601,4.8142839 20.5679008,5.31194413 Z" id="Rectangle"></path>
                <path d="M34.9536191,15.5275565 C36.2226807,14.5360569 38.0552277,14.7610654 39.0467273,16.030127 L48.6214945,28.2852702 L48.6214945,28.2852702 L44.0258158,31.875808 L34.4510486,19.6206647 C33.459549,18.3516031 33.6845574,16.5190561 34.9536191,15.5275565 Z" id="Rectangle"></path>
                <path d="M61.2852106,41.5255085 L52.9775664,32.1743161 C48.8215317,27.4962293 42.960298,24.683985 36.7106464,24.3693803 L25.6952869,23.814872 C22.6348761,23.6608123 19.7580127,22.3086096 17.6865396,20.0505468 L6.0373644,7.35206224 C5.01041432,6.23260875 3.29135648,6.1011968 2.10618202,7.05154626 C0.940176781,7.98652461 0.746132453,9.6867677 1.67148433,10.8604272 L16.9436866,30.2307508 C19.0570831,32.9112531 21.7814601,35.0468817 24.8890606,36.4590986 L36.0377579,41.5255085 L36.0377579,41.5255085 L61.2852106,41.5255085 Z" id="Path"></path>
            </g>
            <path d="M307.998288,112.661256 L327.922621,129.981215 L272.813662,193.376819 C271.685669,194.674427 270.359957,195.698429 268.920602,196.443091 C263.718876,199.223061 257.176838,198.518282 252.671761,194.385847 L252.414136,194.143635 L226.223621,168.906256 L224.128359,180.06325 L230.292006,223.600182 C215.569991,230.280143 199.219405,234 182,234 C164.752519,234 148.376693,230.268003 133.635996,223.567484 L139.794262,180.06325 L137.699,168.906256 L111.508484,194.143635 C106.997895,198.489886 100.303778,199.276522 95.0020187,196.443091 C93.5626642,195.698429 92.2369516,194.674427 91.1089584,193.376819 L36,129.981215 L55.9243329,112.661256 L101.197,164.742256 L142.521976,118.847754 C142.602203,118.758652 142.68372,118.671403 142.766473,118.586009 C144.761473,116.047973 147.769408,114.317342 151.241721,114.038505 C151.561259,114.012845 151.881697,114 152.202263,114 L211.720358,114 C212.040924,114 212.361362,114.012845 212.6809,114.038505 C216.153213,114.317342 219.161148,116.047973 221.156147,118.586009 L221.279344,118.715491 L221.279344,118.715491 L221.400645,118.847754 L262.725621,164.742256 L307.998288,112.661256 Z" id="Combined-Shape" stroke="#242648" stroke-width="0.972" fill="#D0DDF5"></path>
            <path d="M198.924311,114 L198.924311,119.239346 C198.924311,126.971332 192.656297,133.239346 184.924311,133.239346 C177.192324,133.239346 170.924311,126.971332 170.924311,119.239346 L170.924311,114 L170.924311,114 L198.924311,114 Z" id="Rectangle-Copy-17" stroke="#212545" stroke-width="0.978118907" fill-rule="nonzero"></path>
            <rect id="Rectangle-Copy-14" stroke="#212545" stroke-width="0.978118907" fill="#FFFFFF" fill-rule="nonzero" x="173.534116" y="95" width="22.7803893" height="34.4786915" rx="11.3853041"></rect>
            <polygon id="Path" fill="#212545" fill-rule="nonzero" points="173.534116 107.301581 173.534116 113.884322 189.77089 108.895915"></polygon>
            <rect id="Rectangle" stroke="#212545" stroke-width="0.978118907" fill="#FFFFFF" fill-rule="nonzero" x="156.338786" y="22.8410138" width="55.8603708" height="86.602648" rx="27.9301854"></rect>
            <path d="M173.56346,95.2022506 C175.069763,92.1798631 179.050707,89.4606926 184.117363,88.3554182 C189.184019,87.2501438 193.898552,88.1304509 196.51991,90.311656 L173.56346,95.2022506 Z" id="Path" stroke="#212545" stroke-width="0.8" fill="#FFFFFF" fill-rule="nonzero" stroke-linejoin="round"></path>
            <path d="M217.329809,52.8964576 C216.765529,35.142818 202.227588,21.0332262 184.465014,21 L184.465014,21 C176.260444,21.0036875 168.356708,24.0897751 162.320402,29.6465711 C153.34127,37.8823323 159.307796,52.8964576 171.495157,52.8964576 L217.329809,52.8964576 Z" id="Path" fill="#FFFFFF" fill-rule="nonzero"></path>
            <path d="M158.148306,40.6916839 C158.349745,47.9938972 164.331579,53.8065563 171.636565,53.7984856 L217.471217,53.7984856" id="Path" stroke="#212545" stroke-width="0.978118907" stroke-linecap="round" stroke-linejoin="round"></path>
            <circle id="Oval" fill="#212545" fill-rule="nonzero" cx="170.775821" cy="65.6141536" r="2.14208041"></circle>
            <circle id="Oval" fill="#212545" fill-rule="nonzero" cx="197.791465" cy="65.6141536" r="2.14208041"></circle>
            <path d="M166.139537,66.0347447 C166.061063,64.3257831 166.928102,62.7119582 168.396409,61.8340164 C169.864716,60.9560745 171.696706,60.9560745 173.165014,61.8340164 C174.633321,62.7119582 175.50036,64.3257831 175.421886,66.0347447" id="Path" stroke="#212545" stroke-width="0.978118907" stroke-linecap="round" stroke-linejoin="round"></path>
            <path d="M193.155181,66.0347447 C193.155181,63.474196 195.230916,61.3984611 197.791465,61.3984611 C200.352014,61.3984611 202.427749,63.474196 202.427749,66.0347447" id="Path" stroke="#212545" stroke-width="0.978118907" stroke-linecap="round" stroke-linejoin="round"></path>
            <path d="M200.618229,56.635022 C202.80051,56.7297896 204.822123,57.8089421 206.115257,59.5693788" id="Path" stroke="#212545" stroke-width="0.978118907" stroke-linecap="round" stroke-linejoin="round"></path>
            <path d="M168.888051,56.635022 C166.70577,56.7297896 164.684157,57.8089421 163.391023,59.5693788" id="Path" stroke="#212545" stroke-width="0.978118907" stroke-linecap="round" stroke-linejoin="round"></path>
            <path d="M187.824433,78.5448856 C186.681551,79.0172115 185.451152,79.2406174 184.215175,79.2002252 C183.014895,79.2744504 181.814982,79.0492566 180.72329,78.5448856" id="Path" stroke="#212545" stroke-width="0.978118907" stroke-linecap="round" stroke-linejoin="round"></path>
            <circle id="Oval" stroke="#212545" stroke-width="0.978118907" cx="168.760896" cy="64.0198198" r="15.6694649"></circle>
            <circle id="Oval" stroke="#212545" stroke-width="0.978118907" cx="200.109607" cy="64.0198198" r="15.6694649"></circle>
        </g>
    </g>
</svg>