<?xml version="1.0" encoding="UTF-8"?>
<svg width="225px" height="150px" viewBox="0 0 225 150" version="1.1" xmlns="http://www.w3.org/2000/svg" xmlns:xlink="http://www.w3.org/1999/xlink">
    <title>guardrisk</title>
    <g id="guardrisk" stroke="none" stroke-width="1" fill="none" fill-rule="evenodd">
        <g transform="translate(4.000000, 59.000000)">
            <path d="M161.627765,22.3642353 L163.918902,22.3642353 L163.918902,16.1832941 L169.270588,11.9686275 L178.58902,22.3642353 L181.683765,22.3642353 L171.08298,10.6007843 L180.307373,3.488 L176.793725,3.488 L163.918902,13.5416471 L163.918902,3.488 L161.627765,3.488 L161.627765,22.3642353 Z M139.451608,18.4744314 C141.058824,20.2611765 143.349961,22.8344314 149.530902,22.8344314 C155.942667,22.8344314 159.003216,20.2098824 159.003216,17.0467451 C159.003216,8.57466667 142.537804,14.0289412 142.537804,8.31819608 C142.537804,5.92447059 145.213647,4.94133333 149.009412,4.94133333 C154.138824,4.94133333 155.968314,7.35215686 156.703529,8.2412549 L158.413333,6.8905098 C157.113882,5.06956863 154.044784,3.01780392 149.060706,3.01780392 C143.931294,3.01780392 140.203922,4.65066667 140.203922,8.6772549 C140.203922,16.3713725 156.669333,11.3018039 156.669333,17.0467451 C156.669333,19.9790588 152.694039,20.8083137 149.830118,20.8083137 C144.170667,20.8083137 142.349725,18.4231373 141.281098,16.9698039 L139.451608,18.4744314 Z M134.826588,22.3642353 L137.109176,22.3642353 L137.109176,3.488 L134.826588,3.488 L134.826588,22.3642353 Z M113.240314,22.3642353 L115.531451,22.3642353 L115.531451,14.0032941 L122.960549,14.0032941 L129.038902,22.3642353 L131.868627,22.3642353 L125.670588,13.952 C127.953176,13.8494118 131.612157,12.7038431 131.612157,8.7627451 C131.612157,4.13772549 127.200863,3.488 124.183059,3.488 L113.240314,3.488 L113.240314,22.3642353 Z M115.531451,5.51411765 L123.635922,5.51411765 C126.935843,5.51411765 129.397961,5.97576471 129.397961,8.72854902 C129.397961,11.4813333 126.935843,11.9771765 123.635922,11.9771765 L115.531451,11.9771765 L115.531451,5.51411765 Z M90.4400784,22.3642353 L99.6901176,22.3642353 C105.922353,22.3642353 110.282353,19.2523922 110.282353,12.8235294 C110.282353,5.98431373 105.503451,3.50509804 99.5276863,3.50509804 L90.4400784,3.50509804 L90.4400784,22.3642353 Z M94.1332549,19.201098 L94.1332549,6.65113725 L97.8691765,6.65113725 C104.050118,6.65113725 106.597725,8.2412549 106.597725,12.8662745 C106.597725,17.2775686 104.152706,19.201098 97.8691765,19.201098 L94.1332549,19.201098 Z M68.3408627,22.3642353 L72.0254902,22.3642353 L72.0254902,14.9436863 L77.8730196,14.9436863 L83.3529412,22.3642353 L87.8924706,22.3642353 L82.1047843,14.6701176 C83.5477873,14.652805 84.9224277,14.0525342 85.9159435,13.0058806 C86.9094593,11.9592271 87.4373575,10.5552026 87.3795294,9.1132549 C87.3795294,4.48823529 84.156549,3.47945098 79.6854118,3.47945098 L68.3408627,3.47945098 L68.3408627,22.3642353 Z M72.0254902,11.8745882 L72.0254902,6.54854902 L79.1468235,6.54854902 C82.1560784,6.54854902 83.6863529,6.99309804 83.6863529,9.1987451 C83.6863529,11.4043922 82.1560784,11.8745882 79.1468235,11.8745882 L72.0254902,11.8745882 Z M43.7453333,22.3642353 L47.6693333,22.3642353 L49.6612549,18.0298824 L60.5441569,18.0298824 L62.5189804,22.3642353 L66.4173333,22.3642353 L57.2784314,3.488 L53.0039216,3.488 L43.7453333,22.3642353 Z M51.2000784,14.8581961 L55.1411765,6.44596078 L59.0908235,14.8581961 L51.2000784,14.8581961 Z M43.3777255,3.488 L39.684549,3.488 L39.684549,14.0032941 C39.684549,17.0980392 38.5731765,19.6627451 33.3411765,19.6627451 C28.1091765,19.6627451 27.0063529,17.0980392 27.0063529,14.0032941 L27.0063529,3.488 L23.3217255,3.488 L23.3217255,14.2683137 C23.3217255,20.3381176 27.1944314,22.8173333 33.3497255,22.8173333 C39.5050196,22.8173333 43.3777255,20.3210196 43.3777255,14.2683137 L43.3777255,3.488 Z M10.6264314,12.6781961 L10.6264314,15.6447059 L17.2433725,15.6447059 C16.3884706,18.2863529 14.3367059,19.5601569 10.7033725,19.5601569 C6.70243137,19.5601569 3.68462745,17.2775686 3.68462745,12.8064314 C3.68462745,10.1904314 5.09521569,6.1894902 11.0111373,6.1894902 C15.3540392,6.1894902 16.3628235,8.42078431 16.8073725,9.37827451 L20.5689412,9.37827451 C19.6627451,4.62501961 14.9094902,3.01780392 10.5751373,3.01780392 C3.04345098,3.01780392 0,7.92494118 0,12.9688627 C0,20.5176471 5.84752941,22.8344314 10.6777255,22.8344314 C13.2088297,22.8870328 15.6880276,22.1126586 17.7392157,20.6287843 L18.4658824,22.5779608 L20.6971765,22.5779608 L20.6971765,12.6781961 L10.6264314,12.6781961 Z" id="Shape" fill="#231F20" fill-rule="nonzero"></path>
            <polygon id="Path" fill="#FDB913" fill-rule="nonzero" points="196.319686 10.4298039 196.319686 3.47945098 190.301176 0 184.274118 3.47945098 184.274118 10.4298039 190.301176 13.9007059"></polygon>
            <polygon id="Path" fill="#231F20" fill-rule="nonzero" points="210.408471 10.4298039 210.408471 3.47945098 204.389961 0 198.362902 3.47945098 198.362902 10.4298039 204.389961 13.9007059"></polygon>
            <polygon id="Path" fill="#231F20" fill-rule="nonzero" points="203.423922 22.3556863 203.423922 15.4053333 197.405412 11.9258824 191.378353 15.4053333 191.378353 22.3556863 197.405412 25.8265882"></polygon>
            <g id="Group" transform="translate(186.368627, 11.113725)" stroke="#FFFFFF" stroke-width="1.37639216">
                <line x1="5.59105882" y1="0.521490196" x2="19.6969412" y2="8.47207843" id="Path"></line>
                <line x1="3.06054902" y1="3.06054902" x2="17.1578824" y2="11.0111373" id="Path"></line>
                <line x1="0.581333333" y1="5.53976471" x2="14.6872157" y2="13.4903529" id="Path"></line>
            </g>
            <polygon id="Path" fill="#FDB913" fill-rule="nonzero" points="217.512706 22.3556863 217.512706 15.4053333 211.494196 11.9258824 205.467137 15.4053333 205.467137 22.3556863 211.494196 25.8265882"></polygon>
            <path d="M176.656941,31.7083137 C177.285478,32.4931991 178.261966,32.9158104 179.264392,32.8367843 C180.914353,32.8367843 181.709412,32.1614118 181.709412,31.3407059 C181.709412,29.1521569 177.434902,30.5627451 177.434902,29.0923137 C177.434902,28.4682353 178.118824,28.2374118 179.101961,28.2374118 C179.868698,28.1766687 180.616402,28.4962001 181.102431,29.0923137 L181.529882,28.7418039 C180.927062,28.0503435 180.033935,27.6829581 179.119059,27.7501176 C177.785412,27.7501176 176.827922,28.1690196 176.827922,29.212 C176.827922,31.1868235 181.102431,29.8873725 181.102431,31.3663529 C181.102431,32.1272157 180.076549,32.3409412 179.324235,32.3409412 C178.462034,32.4447978 177.613132,32.063121 177.118588,31.3492549 L176.656941,31.7083137 Z M170.510196,32.717098 L171.065882,32.717098 L171.065882,28.3656471 L174.972784,32.717098 L175.562667,32.717098 L175.562667,27.8441569 L174.972784,27.8441569 L174.972784,31.8536471 L171.339451,27.8441569 L170.484549,27.8441569 L170.510196,32.717098 Z M164.218118,30.2036863 C164.158461,29.2791582 164.669861,28.4120747 165.507832,28.0169609 C166.345804,27.6218472 167.340126,27.7789644 168.015446,28.4131999 C168.690765,29.0474353 168.909901,30.0299539 168.568091,30.8910445 C168.226281,31.7521352 167.392959,32.3168807 166.46651,32.3152941 C165.877262,32.3781 165.289912,32.1808966 164.857958,31.7752209 C164.426004,31.3695453 164.192371,30.7957119 164.218118,30.2036863 M163.611137,30.3062745 C163.611137,32.0160784 165.064471,32.8709804 166.46651,32.8709804 C167.868549,32.8709804 169.321882,32.0759216 169.321882,30.3062745 C169.321882,28.5366275 168.12502,27.7415686 166.46651,27.7415686 C164.808,27.7415686 163.611137,28.6990588 163.611137,30.3062745 M161.84149,32.717098 L162.431373,32.717098 L162.431373,27.8441569 L161.84149,27.8441569 L161.84149,32.717098 Z M157.891843,32.717098 L158.481725,32.717098 L158.481725,28.3656471 L160.832706,28.3656471 L160.832706,27.8441569 L155.540863,27.8441569 L155.540863,28.3656471 L157.891843,28.3656471 L157.891843,32.717098 Z M154.472235,27.8441569 L153.882353,27.8441569 L153.882353,30.7080784 C153.882353,31.828 153.164235,32.3409412 151.958824,32.3409412 C150.753412,32.3409412 150.043843,31.828 150.043843,30.7080784 L150.043843,27.8441569 L149.453961,27.8441569 L149.453961,30.7080784 C149.453961,32.4777255 150.830353,32.8367843 151.958824,32.8367843 C153.087294,32.8367843 154.472235,32.4777255 154.472235,30.7080784 L154.472235,27.8441569 Z M143.982588,32.717098 L148.419529,32.717098 L148.419529,32.1956078 L144.572471,32.1956078 L144.572471,27.8441569 L143.982588,27.8441569 L143.982588,32.717098 Z M137.699059,30.2036863 C137.639402,29.2791582 138.150802,28.4120747 138.988773,28.0169609 C139.826745,27.6218472 140.821067,27.7789644 141.496387,28.4131999 C142.171706,29.0474353 142.390842,30.0299539 142.049032,30.8910445 C141.707223,31.7521352 140.8739,32.3168807 139.947451,32.3152941 C139.358203,32.3781 138.770854,32.1808966 138.338899,31.7752209 C137.906945,31.3695453 137.673312,30.7957119 137.699059,30.2036863 M137.092078,30.3062745 C137.092078,32.0160784 138.545412,32.8709804 139.947451,32.8709804 C141.34949,32.8709804 142.802824,32.0759216 142.802824,30.3062745 C142.802824,28.5366275 141.605961,27.7415686 139.947451,27.7415686 C138.288941,27.7415686 137.092078,28.6990588 137.092078,30.3062745 M131.201804,31.7083137 C131.820598,32.4814129 132.778471,32.9028772 133.76651,32.8367843 C135.42502,32.8367843 136.211529,32.1614118 136.211529,31.3407059 C136.211529,29.1521569 131.93702,30.5627451 131.93702,29.0923137 C131.93702,28.4682353 132.62949,28.2374118 133.646824,28.2374118 C134.411883,28.1719622 135.159133,28.4926706 135.638745,29.0923137 L136.066196,28.7418039 C135.464184,28.0492169 134.570468,27.6815888 133.655373,27.7501176 C132.330275,27.7501176 131.372784,28.1690196 131.372784,29.212 C131.372784,31.1868235 135.647294,29.8873725 135.647294,31.3663529 C135.647294,32.1272157 134.621412,32.3409412 133.869098,32.3409412 C132.999486,32.4386595 132.147213,32.0470743 131.654902,31.3236078 L131.201804,31.7083137 Z M122.763922,32.717098 L123.353804,32.717098 L123.353804,31.1184314 L124.815686,30.0327059 L127.217961,32.717098 L128.01302,32.717098 L125.277333,29.6821961 L127.653961,27.8441569 L126.756314,27.8441569 L123.430745,30.4088627 L123.430745,27.8441569 L122.840863,27.8441569 L122.763922,32.717098 Z M116.540235,31.7083137 C117.159029,32.4814129 118.116903,32.9028772 119.104941,32.8367843 C120.763451,32.8367843 121.549961,32.1614118 121.549961,31.3407059 C121.549961,29.1521569 117.275451,30.5627451 117.275451,29.0923137 C117.275451,28.4682353 117.967922,28.2374118 118.985255,28.2374118 C119.750314,28.1719622 120.497565,28.4926706 120.977176,29.0923137 L121.404627,28.7418039 C120.802616,28.0492169 119.908899,27.6815888 118.993804,27.7501176 C117.668706,27.7501176 116.711216,28.1690196 116.711216,29.212 C116.711216,31.1868235 120.985725,29.8873725 120.985725,31.3663529 C120.985725,32.1272157 119.959843,32.3409412 119.207529,32.3409412 C118.343028,32.4442058 117.49191,32.0630102 116.993333,31.3492549 L116.540235,31.7083137 Z M114.830431,32.717098 L115.420314,32.717098 L115.420314,27.8441569 L114.830431,27.8441569 L114.830431,32.717098 Z M108.640941,32.717098 L109.230824,32.717098 L109.230824,30.5541961 L111.145804,30.5541961 L112.718824,32.717098 L113.44549,32.717098 L111.838275,30.5456471 C112.219932,30.5737719 112.596903,30.4474957 112.884609,30.1951499 C113.172316,29.942804 113.346668,29.5855172 113.368549,29.203451 C113.368549,28.0065882 112.231529,27.8441569 111.453569,27.8441569 L108.640941,27.8441569 L108.640941,32.717098 Z M109.230824,28.3656471 L111.325333,28.3656471 C112.180235,28.3656471 112.812863,28.4853333 112.812863,29.220549 C112.812863,29.9557647 112.171686,30.075451 111.325333,30.075451 L109.230824,30.075451 L109.230824,28.3656471 Z M100.382588,28.3656471 L102.19498,28.3656471 C102.73305,28.2578187 103.290631,28.4069761 103.702997,28.7690533 C104.115362,29.1311305 104.335376,29.6647398 104.298039,30.2122353 C104.338882,30.7713764 104.125846,31.3191973 103.717985,31.7038473 C103.310123,32.0884974 102.750773,32.2691051 102.19498,32.1956078 L100.485176,32.1956078 L100.382588,28.3656471 Z M99.7927059,32.717098 L102.006902,32.717098 C103.297804,32.717098 104.802431,32.2212549 104.802431,30.2378824 C104.802431,28.6392157 103.716706,27.8441569 102.19498,27.8441569 L99.7927059,27.8441569 L99.7927059,32.717098 Z M94.3384314,32.717098 L98.7668235,32.717098 L98.7668235,32.1956078 L94.9796078,32.1956078 L94.9796078,30.4858039 L98.117098,30.4858039 L98.117098,29.9215686 L94.9796078,29.9215686 L94.9796078,28.3656471 L98.7326275,28.3656471 L98.7326275,27.8441569 L94.3897255,27.8441569 L94.3384314,32.717098 Z M88.1489412,32.717098 L88.7388235,32.717098 L88.7388235,30.5541961 L90.6538039,30.5541961 L92.2268235,32.717098 L92.9534902,32.717098 L91.3462745,30.5456471 C91.7279319,30.5737719 92.1049028,30.4474957 92.3926091,30.1951499 C92.6803155,29.942804 92.8546682,29.5855172 92.876549,29.203451 C92.876549,28.0065882 91.7395294,27.8441569 90.9615686,27.8441569 L88.1489412,27.8441569 L88.1489412,32.717098 Z M88.7388235,28.3656471 L90.8247843,28.3656471 C91.6796863,28.3656471 92.3208627,28.4853333 92.3208627,29.220549 C92.3208627,29.9557647 91.6796863,30.075451 90.8247843,30.075451 L88.7388235,30.075451 L88.7388235,28.3656471 Z M81.8996078,30.2036863 C81.8400022,29.2799366 82.3504989,28.4134477 83.1873908,28.0178744 C84.0242827,27.622301 85.0178683,27.777856 85.693818,28.4102786 C86.3697677,29.0427013 86.5910151,30.0237514 86.2519384,30.8850837 C85.9128618,31.7464161 85.0822178,32.3133731 84.156549,32.3152941 C83.5659115,32.3807861 82.9761613,32.1847894 82.5422185,31.7787899 C82.1082757,31.3727904 81.873516,30.7973706 81.8996078,30.2036863 M81.3011765,30.3062745 C81.3011765,32.0160784 82.7459608,32.8709804 84.156549,32.8709804 C85.5671373,32.8709804 87.0119216,32.0759216 87.0119216,30.3062745 C87.0119216,28.5366275 85.8065098,27.7415686 84.156549,27.7415686 C82.5065882,27.7415686 81.3011765,28.6990588 81.3011765,30.3062745 M76.1717647,32.717098 L80.6087059,32.717098 L80.6087059,32.1956078 L76.7701961,32.1956078 L76.7701961,27.8441569 L76.1888627,27.8441569 L76.1717647,32.717098 Z M74.0687059,32.717098 L74.6585882,32.717098 L74.6585882,27.8441569 L74.0687059,27.8441569 L74.0687059,32.717098 Z M67.3491765,32.717098 L68.007451,32.717098 L68.6486275,31.4518431 L71.8117647,31.4518431 L72.4443922,32.717098 L73.1112157,32.717098 L70.6063529,27.8441569 L69.8882353,27.8441569 L67.3491765,32.717098 Z M68.9136471,30.9218039 L70.2216471,28.3058039 L71.5296471,30.9218039 L68.9136471,30.9218039 Z M64.7588235,32.717098 L65.3487059,32.717098 L65.3487059,28.3656471 L67.6996863,28.3656471 L67.6996863,27.8441569 L62.4078431,27.8441569 L62.4078431,28.3656471 L64.7588235,28.3656471 L64.7588235,32.717098 Z" id="Shape" fill="#231F20" fill-rule="nonzero"></path>
        </g>
    </g>
</svg>