<?xml version="1.0" encoding="UTF-8"?>
<svg width="225px" height="150px" viewBox="0 0 225 150" version="1.1" xmlns="http://www.w3.org/2000/svg" xmlns:xlink="http://www.w3.org/1999/xlink">
    <title>old-mutual</title>
    <defs>
        <linearGradient x1="-0.110577531%" y1="49.2803948%" x2="99.8831038%" y2="49.2803948%" id="linearGradient-1">
            <stop stop-color="#8FC640" offset="0%"></stop>
            <stop stop-color="#8FC640" offset="30%"></stop>
            <stop stop-color="#039678" offset="70%"></stop>
            <stop stop-color="#039678" offset="100%"></stop>
        </linearGradient>
        <filter id="filter-2">
            <feColorMatrix in="SourceGraphic" type="matrix" values="0 0 0 0 0.011765 0 0 0 0 0.588235 0 0 0 0 0.470588 0 0 0 1.000000 0"></feColorMatrix>
        </filter>
    </defs>
    <g id="old-mutual" stroke="none" stroke-width="1" fill="none" fill-rule="evenodd">
        <g id="Group-4" transform="translate(4.000000, 51.000000)">
            <path d="M8.75635297,31.5120101 C8.26970651,30.6708384 8.55927216,29.6083636 9.39603984,29.1272222 C10.2306055,28.6449798 11.2996863,28.9290404 11.7819287,29.7658081 C12.2641712,30.6003737 11.9790095,31.6705556 11.1422419,32.152798 C10.8658883,32.3124444 10.5642116,32.3873131 10.2680398,32.3873131 C9.66578731,32.3873131 9.08115095,32.0757273 8.75635297,31.5120101 M14.7876863,26.3207475 C14.0467065,24.9764141 11.1972924,25.4201212 12.1188378,27.3402828 C10.9925045,26.7105051 9.57550449,26.6719697 8.3776055,27.362303 C6.5686459,28.4071616 5.95097923,30.7236869 6.99253479,32.5315455 C8.03739338,34.336101 10.3517166,34.9592727 12.1595752,33.9144141 C13.3563732,33.2240808 14.0334944,31.9766364 14.0500095,30.6884545 C15.2512116,32.4434646 17.0612722,30.1985051 16.2696459,28.886101 C17.0139287,28.3333939 18.4474439,27.4217576 19.7829691,26.6070101 C19.8446257,25.6304141 19.8853631,24.6780404 19.9073833,23.6882323 C18.3120196,24.5899596 15.9437469,25.8175859 14.7876863,26.3207475 M11.1983934,4.22347475 C7.50120146,6.35723232 4.20587822,8.81578788 1.36747418,11.4824343 C0.477858022,15.2754141 0.00442367853,19.3502525 9.77510622e-06,23.6199697 C-0.00218238208,27.144303 0.364453982,30.5618384 0.978817618,33.7723838 C2.02587822,33.1183838 3.1136762,32.0977475 4.1266055,30.7897475 C3.94053479,29.0908889 4.09908024,27.0782424 4.68041358,24.9125556 C5.2166055,22.9065152 5.98951459,21.1228788 6.90775701,19.7774444 C9.39493883,19.0639899 14.865858,21.0953535 19.9062823,23.6827273 C19.9194944,23.1399293 19.9238984,22.6290606 19.9238984,22.0895657 C19.9238984,21.6502626 19.9183934,21.1173737 19.9084843,20.5470505 C15.6596863,17.6690101 11.8876257,14.4100202 11.3217065,12.1309293 C12.027454,10.6643838 13.1857166,9.10315152 14.6544641,7.63440404 C16.2410196,6.04894949 17.9046459,4.905 19.4669792,4.21686869 C20.095656,2.68426263 20.4347671,1.23092929 20.4766055,0 C17.3882722,1.07348485 14.2503934,2.46075758 11.1983934,4.22347475 M36.0536964,31.5120101 C35.7299994,32.0757273 35.1453631,32.3873131 34.5431105,32.3873131 C34.2469388,32.3873131 33.9452621,32.3124444 33.6689085,32.152798 C32.8332419,31.6705556 32.5469792,30.6003737 33.0292217,29.7658081 C33.5114641,28.9290404 34.5794439,28.6449798 35.4151105,29.1272222 C36.2507772,29.6094646 36.5403429,30.6708384 36.0536964,31.5120101 M30.0234641,26.3207475 C28.8663025,25.8175859 26.4980297,24.5899596 24.9037671,23.6871313 C24.9257873,24.6769394 24.9665247,25.6304141 25.0281813,26.6059091 C26.3626055,27.4206566 27.7972217,28.3322929 28.5415045,28.885 C27.7487772,30.196303 29.5577368,32.4412626 30.7600398,30.6873535 C30.777656,31.9755354 31.4536762,33.2229798 32.6504742,33.9133131 C34.4594338,34.9581717 36.772656,34.335 37.8186156,32.5304444 C38.8601712,30.7214848 38.2414035,28.4060606 36.4335449,27.361202 C35.2356459,26.6708687 33.8186459,26.709404 32.6912116,27.3391818 C33.613858,25.4201212 30.7633429,24.9775152 30.0234641,26.3207475 M33.611656,4.22347475 C30.557454,2.46075758 27.4206762,1.07348485 24.3334439,0 C24.3763833,1.23092929 24.7154944,2.68426263 25.3430701,4.21576768 C26.9054035,4.90389899 28.5690297,6.04784848 30.1555853,7.63330303 C31.6232318,9.10205051 32.7825954,10.6632828 33.4883429,12.1298283 C32.9213227,14.4078182 29.1503631,17.6668081 24.9004641,20.5459495 C24.890555,21.1173737 24.8850499,21.6491616 24.8850499,22.0884646 C24.8850499,22.6279596 24.889454,23.1388283 24.9026661,23.6816263 C29.9452924,21.0942525 35.4151105,19.0628889 37.9011914,19.7763434 C38.8194338,21.1217778 39.5934439,22.9054141 40.1296358,24.9114545 C40.7109691,27.0771414 40.8695146,29.0897879 40.6823429,30.7886465 C41.6952722,32.0966465 42.7841712,33.1172828 43.8301307,33.7712828 C44.4444944,30.5607374 44.8100297,27.143202 44.8089312,23.6188687 C44.8056257,19.3491515 44.3321914,15.2743131 43.4414742,11.4813333 C40.6041712,8.81578788 37.3077469,6.35723232 33.611656,4.22347475 M20.6582722,9.59420202 C20.6582722,8.63081818 21.4333833,7.848 22.4044742,7.848 C23.3777671,7.848 24.1528782,8.63081818 24.1528782,9.59530303 C24.1528782,10.5597879 23.37006,11.3415051 22.4044742,11.3415051 C21.4388883,11.3415051 20.6582722,10.5597879 20.6582722,9.59420202 M18.6225045,9.59420202 C18.6225045,10.9781717 19.3645853,12.1870808 20.4722015,12.8465859 C18.349454,13.0084343 19.3899085,15.698202 20.9225146,15.6695758 C21.0843631,17.0788687 21.1691409,20.3136364 21.1691409,22.0939697 C21.1691409,28.6945253 20.2586055,36.7693333 17.9894237,38.9537374 C16.3665348,39.0781515 14.4353631,38.8546465 12.4293227,38.3173535 C10.2625348,37.7393232 8.44036307,36.8684242 7.06410045,35.859899 C5.42249439,36.081202 3.99448428,36.513899 2.9066863,37.0941313 C5.37955499,39.2333939 8.15079742,41.2548485 11.2038984,43.0164646 C14.7986964,45.0918687 18.7568277,46.7907273 22.4033732,47.9060505 C26.0124843,46.7896263 30.010252,45.0907677 33.6050499,43.0164646 C36.658151,41.2548485 39.4282924,39.2333939 41.9033631,37.0941313 C40.8144641,36.513899 39.386454,36.081202 37.7459489,35.859899 C36.3696863,36.8706263 34.5464136,37.7393232 32.3807267,38.3195556 C30.3735853,38.8546465 28.4424136,39.0781515 26.8206257,38.9559394 C24.5503429,36.7693333 23.6409085,28.6945253 23.6409085,22.0939697 C23.6409085,20.3147374 23.7245853,17.0810707 23.8875348,15.6695758 C25.4190398,15.697101 26.4605954,13.0084343 24.3378479,12.8465859 C25.4443631,12.1881818 26.1864439,10.9781717 26.1864439,9.59530303 C26.1864439,7.50778788 24.4919893,5.81333333 22.4044742,5.81223232 C20.31806,5.81333333 18.6225045,7.50668687 18.6225045,9.59420202" id="Shape" fill="url(#linearGradient-1)" fill-rule="nonzero"></path>
            <g filter="url(#filter-2)" id="Group">
                <g transform="translate(55.050525, 13.212121)">
                    <path d="M16.7948081,10.5619899 L16.7948081,10.5091414 C16.7948081,6.2889697 13.7174848,2.83840404 9.46868687,2.83840404 C5.22429293,2.83840404 2.19761616,6.23391919 2.19761616,10.4540909 L2.19761616,10.5091414 C2.19761616,14.7282121 5.2760404,18.1776768 9.52593939,18.1776768 C13.7681313,18.1776768 16.7948081,14.7799596 16.7948081,10.5619899 M0.0231212121,10.5619899 L0.0231212121,10.5091414 C0.0231212121,5.38724242 3.87005051,0.899525253 9.52593939,0.899525253 C15.1763232,0.899525253 18.970404,5.33219192 18.970404,10.4540909 C19.0001313,10.4805152 19.0001313,10.4805152 18.970404,10.5091414 C18.970404,15.6288384 15.1234747,20.1154545 9.46868687,20.1154545 C3.81610101,20.1154545 0.0231212121,15.6849899 0.0231212121,10.5619899" id="Shape" fill="#006150" fill-rule="nonzero"></path>
                    <polygon id="Path" fill="#006150" fill-rule="nonzero" points="21.3386768 1.21881818 23.436101 1.21881818 23.436101 17.8594848 33.8901919 17.8594848 33.8901919 19.7961616 21.3386768 19.7961616"></polygon>
                    <path d="M42.8160808,17.8594848 C47.5173939,17.8594848 50.5132424,14.6742626 50.5132424,10.5619899 L50.5132424,10.5091414 C50.5132424,6.39466667 47.5162929,3.15549495 42.8160808,3.15549495 L38.4637879,3.15549495 L38.4637879,17.8583838 L42.8160808,17.8583838 L42.8160808,17.8594848 Z M36.3663636,1.21881818 L42.8149798,1.21881818 C48.6536364,1.21881818 52.6877374,5.22649495 52.6877374,10.4540909 L52.6877374,10.5091414 C52.6877374,15.7367374 48.6536364,19.7972626 42.8149798,19.7972626 L36.3663636,19.7972626 L36.3663636,1.21881818 Z" id="Shape" fill="#006150" fill-rule="nonzero"></path>
                    <polygon id="Path" fill="#006150" fill-rule="nonzero" points="55.2035455 1.21881818 59.6097879 1.21881818 64.4916667 9.07672727 69.3779495 1.21881818 73.7808889 1.21881818 73.7808889 19.7961616 69.7236667 19.7961616 69.7236667 7.66853535 64.4916667 15.6035152 64.3870707 15.6035152 59.2101212 7.7500101 59.2101212 19.7961616 55.2035455 19.7961616"></polygon>
                    <path d="M76.2691717,11.8358586 L76.2691717,1.21881818 L80.3572222,1.21881818 L80.3572222,11.7279596 C80.3572222,14.7535354 81.8689091,16.3191717 84.364899,16.3191717 C86.8597879,16.3191717 88.3714747,14.8074848 88.3714747,11.8611818 L88.3714747,1.21881818 L92.4617273,1.21881818 L92.4617273,11.7015354 C92.4617273,17.326596 89.3029293,20.0901316 84.3142525,20.0901316 C79.3222727,20.0912323 76.2691717,17.3045758 76.2691717,11.8358586" id="Path" fill="#006150" fill-rule="nonzero"></path>
                    <polygon id="Path" fill="#006150" fill-rule="nonzero" points="100.202929 4.98647475 94.5503434 4.98647475 94.5503434 1.21881818 109.942465 1.21881818 109.942465 4.98647475 104.287677 4.98647475 104.287677 19.7961616 100.202929 19.7961616"></polygon>
                    <path d="M112.031081,11.8358586 L112.031081,1.21881818 L116.122434,1.21881818 L116.122434,11.7279596 C116.122434,14.7535354 117.63302,16.3191717 120.130111,16.3191717 C122.622798,16.3191717 124.135586,14.8074848 124.135586,11.8611818 L124.135586,1.21881818 L128.222535,1.21881818 L128.222535,11.7015354 C128.222535,17.326596 125.065939,20.0901316 120.076162,20.0901316 C115.087485,20.0912323 112.031081,17.3045758 112.031081,11.8358586" id="Path" fill="#006150" fill-rule="nonzero"></path>
                    <path d="M140.318232,12.0208283 L137.85197,5.99610101 L135.382404,12.0208283 L140.318232,12.0208283 Z M136.017687,1.08559596 L139.788646,1.08559596 L147.751152,19.7961616 L143.478131,19.7961616 L141.777071,15.6288384 L133.921364,15.6288384 L132.224707,19.7961616 L128.056283,19.7961616 L136.017687,1.08559596 Z" id="Shape" fill="#006150" fill-rule="nonzero"></path>
                    <polygon id="Path" fill="#006150" fill-rule="nonzero" points="149.600848 1.21881818 153.685596 1.21881818 153.685596 16.0802525 162.949495 16.0802525 162.949495 19.7961616 149.600848 19.7961616"></polygon>
                </g>
            </g>
        </g>
    </g>
</svg>