<?xml version="1.0" encoding="utf-8"?>
<!-- Generator: Adobe Illustrator 16.0.0, SVG Export Plug-In . SVG Version: 6.00 Build 0)  -->
<!DOCTYPE svg PUBLIC "-//W3C//DTD SVG 1.1//EN" "http://www.w3.org/Graphics/SVG/1.1/DTD/svg11.dtd">
<svg version="1.1" id="Layer_1" xmlns="http://www.w3.org/2000/svg" xmlns:xlink="http://www.w3.org/1999/xlink" x="0px" y="0px"
	 width="660.472px" height="131.811px" viewBox="0 0 660.472 131.811" enable-background="new 0 0 660.472 131.811"
	 xml:space="preserve">
<g>
	<defs>
		<rect id="SVGID_1_" width="660.472" height="131.811"/>
	</defs>
	<clipPath id="SVGID_2_">
		<use xlink:href="#SVGID_1_"  overflow="visible"/>
	</clipPath>
	<path clip-path="url(#SVGID_2_)" fill="#284C7A" d="M50.696,1.386c-26.818,0-48.634,25.605-48.634,57.078
		c0,31.472,21.816,57.074,48.634,57.074c26.815,0,48.633-25.602,48.633-57.074C99.329,26.991,77.511,1.386,50.696,1.386
		 M95.925,58.464c0,12.609-3.693,24.208-9.849,33.377h-0.562c-0.134-0.267-0.457-0.42-0.972-0.42c-0.7,0-1.486-0.093-2.445-0.272
		c-1.253-0.269-4.589-0.881-9.156-5.621c7.981-6.451,13.095-16.312,13.095-27.347c0-14.235-8.507-26.521-20.702-32.043v-1.406
		h20.508C92.141,33.957,95.925,45.694,95.925,58.464 M21.578,90.311c-1.817,0-3.296-1.482-3.296-3.297
		c0-1.816,1.479-3.293,3.296-3.293c1.817,0,3.294,1.477,3.294,3.293C24.872,88.829,23.396,90.311,21.578,90.311 M25.421,79.846
		c-4.978-5.841-7.987-13.409-7.987-21.666c0-8.296,3.044-15.891,8.063-21.743c0.02,2.769,0.02,6.866,0.02,13.614v16.255
		C25.517,71.416,25.515,76.085,25.421,79.846 M63.632,27.256v6.312c-1.24-3.011-3.158-5.235-4.674-6.324
		c-1.365-0.989-2.827-1.734-4.346-2.299C57.771,25.298,60.8,26.083,63.632,27.256 M61.7,24.732h1.932v0.689
		C62.997,25.173,62.353,24.944,61.7,24.732 M63.632,47.28V74.2c-3.072-4.001-6.456-8.553-10.262-13.619
		C58.955,55.784,62.084,51.508,63.632,47.28 M49.441,58.366c-1.571,1.199-2.708,1.568-6.198,1.568c-2.186,0-4.805-0.277-6.637-0.923
		c-0.611-0.277-0.787-0.645-0.787-1.663V29.276c0-0.739,0.176-1.108,0.787-1.293c0.873-0.277,2.444-0.37,4.626-0.37
		c5.152,0,13.36,3.787,13.36,16.899C54.592,52.087,52.059,56.333,49.441,58.366 M36.518,64.182l7.596,0.185
		c0.611,0,1.135,0.094,1.572,0.645c1.135,1.389,5.153,7.667,8.645,12.744c3.61,5.252,6.364,8.987,9.07,11.44
		c-3.87,1.566-8.093,2.433-12.516,2.433c-2.302,0-4.552-0.233-6.725-0.679c1.169-0.917,1.922-2.338,1.922-3.936
		c0-2.757-2.242-4.996-4.998-4.996c-2.34,0-4.303,1.616-4.845,3.793c-0.419-3.914-0.42-11.125-0.42-19.598v-1.292
		C35.819,64.367,36.081,64.182,36.518,64.182 M41.486,90.284c-0.922-0.268-1.827-0.577-2.714-0.922
		c-0.607-0.6-0.982-1.43-0.982-2.348c0-1.816,1.477-3.293,3.294-3.293c1.817,0,3.296,1.477,3.296,3.293
		C44.38,88.696,43.113,90.087,41.486,90.284 M63.632,90.94v0.901h-2.636C61.89,91.573,62.77,91.278,63.632,90.94 M66.293,91.329
		c0.33,0.189,0.659,0.359,0.997,0.513h-1.956v-1.114C65.651,90.942,65.97,91.149,66.293,91.329 M65.334,76.405V28.016
		c11.23,5.401,19,16.892,19,30.165c0,10.541-4.911,19.944-12.555,26.082C69.779,82,67.647,79.372,65.334,76.405 M17.222,22.404
		c8.28-10.814,20.22-17.615,33.474-17.615c13.504,0,25.635,7.069,33.931,18.241H65.334v-3.503h-1.702v3.503h-46.41V22.404z
		 M24.872,29.441c0,1.817-1.477,3.294-3.294,3.294c-1.817,0-3.296-1.477-3.296-3.294c0-1.816,1.479-3.296,3.296-3.296
		C23.396,26.145,24.872,27.625,24.872,29.441 M17.222,24.814c0.241,0.085,0.561,0.121,0.962,0.121c0.384,0,0.795,0.01,1.199,0.029
		c-0.915,0.45-1.664,1.176-2.161,2.062V24.814z M17.222,31.881c0.857,1.524,2.488,2.556,4.356,2.556
		c1.553,0,2.942-0.712,3.859-1.827c0.012,0.402,0.022,0.835,0.032,1.319c-3.77,3.947-6.632,8.767-8.247,14.122V31.881z
		 M17.222,68.309c1.597,5.293,4.411,10.065,8.117,13.987c-0.021,0.478-0.045,0.931-0.07,1.361c-0.914-1.005-2.228-1.64-3.691-1.64
		c-1.868,0-3.499,1.032-4.356,2.557V68.309z M20.321,91.841h-3.099V89.45C17.88,90.62,18.993,91.493,20.321,91.841 M15.548,24.732
		h0.398v29.631c-0.137,1.255-0.213,2.526-0.213,3.818c0,1.289,0.076,2.561,0.213,3.815v29.846h-0.627
		c-6.158-9.17-9.853-20.768-9.853-33.377C5.466,45.694,9.251,33.957,15.548,24.732 M50.696,112.137
		c-13.254,0-25.194-6.802-33.474-17.615v-1.404h29.975c1.211,0.134,2.44,0.214,3.688,0.214c1.287,0,2.555-0.078,3.807-0.214h8.94
		v4.054h1.702v-4.054h19.86C76.891,104.741,64.511,112.137,50.696,112.137"/>
	<path clip-path="url(#SVGID_2_)" fill="#284C7A" d="M392.619,3.926c0,0.435-0.434,0.762-1.193,0.762c-0.545,0-1.308,0-2.612,0.326
		c-3.588,0.762-4.023,3.156-4.023,9.682l-0.217,63.753c0,7.18-0.219,7.725-0.98,7.725c-0.869,0-2.176-1.198-7.941-6.963
		c-1.198-1.088-16.864-17.082-28.395-29.482c-12.619-13.601-24.914-27.308-28.396-31.224l1.414,52.11
		c0.218,8.922,1.306,11.752,4.244,12.62c2.067,0.543,4.459,0.651,5.439,0.651c0.544,0,0.87,0.218,0.87,0.654
		c0,0.651-0.651,0.869-1.957,0.869c-6.202,0-10.553-0.324-11.533-0.324c-0.979,0-5.548,0.324-10.444,0.324
		c-1.087,0-1.74-0.109-1.74-0.869c0-0.437,0.326-0.654,0.871-0.654c0.869,0,2.826-0.108,4.459-0.651
		c2.719-0.762,3.264-3.916,3.264-13.815l0.098-55.652c-0.109-7.056-0.873-9.445-4.242-10.316c-1.959-0.435-4.461-0.544-5.332-0.544
		c-0.761,0-0.869-0.327-0.869-0.762c0-0.652,0.869-0.761,2.175-0.761c3.521,0,7.201,0.169,9.441,0.264
		c0.012-0.001,0.022-0.008,0.034-0.008c0.01,0,0.024,0.009,0.034,0.01c0.882,0.054,2.698,2.397,3.774,3.472
		c0.253,0.287,0.858,0.952,1.76,1.935c4.913,5.359,18.68,20.213,32.836,35.381c10.771,11.532,22.629,24.805,26.109,28.395
		l-1.196-55.267c-0.109-7.072-0.869-9.464-4.243-10.335c-1.958-0.435-4.46-0.544-5.33-0.544c-0.763,0-0.871-0.327-0.871-0.762
		c0-0.652,0.871-0.761,2.176-0.761c4.896,0,10.119,0.326,11.314,0.326c1.196,0,4.786-0.326,9.245-0.326
		C391.86,3.165,392.619,3.274,392.619,3.926 M147.203,53.844c0,10.445,0,19.039-0.544,23.609c-0.435,3.153-0.979,5.549-3.155,5.981
		c-0.978,0.219-2.284,0.437-3.263,0.437c-0.654,0-0.871,0.325-0.871,0.651c0,0.653,0.543,0.871,1.741,0.871
		c3.263,0,10.117-0.326,10.226-0.326c0.545,0,7.399,0.326,13.382,0.326c1.197,0,1.74-0.326,1.74-0.871
		c0-0.326-0.217-0.651-0.869-0.651c-0.98,0-3.374-0.218-4.897-0.437c-3.263-0.433-3.916-2.828-4.242-5.981
		c-0.545-4.57-0.545-13.165-0.545-23.609v-2.61c0-0.545,0.217-0.871,0.762-0.871l13.381,0.218c0.654,0,0.979,0.218,1.415,0.653
		c2.176,2.828,7.288,10.118,11.858,16.102c6.201,8.16,10.008,13.488,14.686,15.992c2.83,1.522,5.549,2.065,11.642,2.065h7.724
		c1.958,0,2.611-0.218,2.611-0.871c0-0.326-0.435-0.651-0.979-0.651c-0.653,0-2.176,0-4.243-0.326
		c-2.719-0.437-7.397-1.633-13.273-7.832c-6.31-6.746-13.707-16.429-22.629-27.851c9.791-9.032,13.164-17.082,13.164-25.131
		c0-7.507-4.786-12.839-7.506-14.796c-5.767-4.134-13.055-4.788-19.909-4.788c-3.372,0-11.641,0.326-12.837,0.326
		c-0.545,0-7.399-0.326-12.295-0.326c-1.195,0-1.739,0.219-1.739,0.871c0,0.435,0.435,0.653,0.87,0.653
		c0.978,0,2.828,0.109,3.698,0.326c3.59,0.761,4.46,2.502,4.679,6.2c0.217,3.482,0.217,6.529,0.217,23.5V53.844z M155.906,8.588
		c0-0.653,0.326-1.089,0.871-1.307c1.088-0.326,4.025-0.653,7.289-0.653c11.641,0,18.821,8.16,18.821,21.759
		c0,8.268-2.829,14.143-6.637,16.755c-2.502,1.74-5.547,2.066-8.158,2.066c-4.787,0-9.793-0.762-11.424-1.741
		c-0.545-0.325-0.762-0.761-0.762-1.305V8.588z M240.104,53.844c0,10.445,0,19.039-0.545,23.609
		c-0.435,3.153-0.978,5.549-3.154,5.981c-0.979,0.219-2.285,0.437-3.263,0.437c-0.654,0-0.872,0.325-0.872,0.651
		c0,0.653,0.544,0.871,1.742,0.871c1.632,0,4.134-0.218,6.31-0.218c2.284-0.108,4.133-0.108,4.352-0.108
		c1.631,0,4.241,0.108,8.485,0.326c4.243,0.11,10.227,0.325,18.386,0.325c4.242,0,5.113,0,5.875-2.829
		c0.544-2.283,1.413-9.679,1.413-10.55c0-0.762,0-1.631-0.652-1.631c-0.543,0-0.761,0.433-0.978,1.631
		c-0.763,4.461-2.068,6.636-4.897,7.832c-2.829,1.197-7.615,1.197-10.444,1.197c-10.662,0-12.293-1.414-12.619-8.923
		c-0.11-2.282,0-14.904,0-18.603v-9.573c0-0.436,0.217-0.761,0.761-0.761c1.85,0,12.619,0.217,15.558,0.543
		c4.242,0.435,5.222,2.285,5.657,3.809c0.434,1.414,0.434,2.501,0.434,3.589c0,0.543,0.218,0.98,0.763,0.98
		c0.761,0,0.761-1.197,0.761-2.068c0-0.761,0.217-4.786,0.435-6.963c0.326-3.589,0.87-5.44,0.87-6.092
		c0-0.653-0.218-0.869-0.544-0.869c-0.435,0-0.87,0.543-1.632,1.413c-0.979,1.089-2.502,1.306-5.113,1.523
		c-2.502,0.218-15.884,0.218-17.298,0.218c-0.543,0-0.652-0.326-0.652-1.088V8.478c0-0.761,0.217-1.088,0.652-1.088
		c1.197,0,13.055,0.109,14.904,0.327c5.876,0.653,6.963,1.958,7.725,3.699c0.544,1.306,0.653,3.155,0.653,3.916
		c0,0.871,0.217,1.414,0.87,1.414c0.435,0,0.654-0.652,0.762-1.197c0.218-1.305,0.435-6.092,0.544-7.179
		c0.326-3.047,0.87-4.352,0.87-5.114c0-0.544-0.109-0.978-0.436-0.978c-0.543,0-0.978,0.434-1.523,0.543
		c-0.87,0.217-2.611,0.435-4.678,0.545c-2.502,0.107-24.151,0.107-24.912,0.107l-4.461-0.217c-2.393-0.109-5.332-0.109-7.834-0.109
		c-1.196,0-1.739,0.219-1.739,0.871c0,0.435,0.435,0.653,0.87,0.653c0.978,0,2.828,0.109,3.698,0.326
		c3.59,0.761,4.46,2.502,4.679,6.2c0.217,3.482,0.217,6.529,0.217,23.5V53.844z M422.202,73.426
		c-1.958,5.441-4.133,9.576-9.137,10.228c-0.873,0.106-2.395,0.218-3.157,0.218c-0.542,0-0.978,0.217-0.978,0.651
		c0,0.653,0.652,0.871,2.067,0.871c5.111,0,11.096-0.326,12.293-0.326s5.873,0.326,8.486,0.326c0.977,0,1.632-0.218,1.632-0.871
		c0-0.435-0.329-0.651-1.09-0.651h-1.087c-1.85,0-4.134-0.981-4.134-3.154c0-1.959,0.545-4.569,1.521-7.291l6.53-19.256
		c0.217-0.543,0.545-0.869,1.087-0.869h23.391c0.543,0,0.761,0.217,0.979,0.652l10.118,26.764c0.651,1.74,0,2.718-0.652,2.937
		c-0.436,0.106-0.762,0.326-0.762,0.761c0,0.653,1.196,0.653,3.264,0.762c7.505,0.218,15.447,0.218,17.08,0.218
		c1.197,0,2.176-0.218,2.176-0.871c0-0.543-0.434-0.651-1.088-0.651c-1.088,0-2.721-0.111-4.353-0.654
		c-2.284-0.651-5.438-2.393-9.356-12.075c-6.636-16.536-23.716-61.467-25.348-65.601c-1.306-3.372-1.74-3.917-2.394-3.917
		c-0.651,0-1.089,0.654-2.394,4.244L422.202,73.426z M437.434,49.384c-0.327,0-0.544-0.218-0.327-0.762l9.573-29.374
		c0.545-1.632,1.09-1.632,1.632,0l10.336,29.374c0.106,0.436,0.106,0.762-0.435,0.762H437.434z M526.959,86.918
		c5.877,0,11.751-1.308,16.429-4.569c7.509-5.332,9.248-13.601,9.248-18.06c0-8.704-3.048-15.449-15.883-25.566l-3.048-2.395
		c-10.441-8.159-13.271-12.075-13.271-18.277c0-7.941,5.874-12.619,13.381-12.619c10.011,0,12.947,4.569,13.598,5.765
		c0.655,1.198,1.308,4.135,1.415,5.44c0.109,0.872,0.219,1.414,0.872,1.414c0.542,0,0.762-0.76,0.762-2.502
		c0-7.396,0.436-10.987,0.436-11.531c0-0.545-0.218-0.762-1.09-0.762c-0.87,0-1.739-0.109-3.809-0.544
		c-2.718-0.653-5.873-1.088-10.118-1.088c-13.814,0-22.518,7.942-22.518,19.583c0,7.398,2.612,14.143,14.142,23.608l4.897,4.025
		c9.356,7.724,12.509,12.076,12.509,19.584c0,6.96-5.113,14.466-15.556,14.466c-7.289,0-14.47-3.046-16.104-11.095
		c-0.323-1.524-0.323-3.047-0.323-4.026c0-0.871-0.11-1.195-0.764-1.195c-0.544,0-0.759,0.543-0.87,1.74
		c-0.106,1.739-0.545,6.092-0.545,11.53c0,2.939,0.111,3.373,1.634,4.136C516.844,86.156,521.849,86.918,526.959,86.918
		 M583.199,73.426c-1.957,5.441-4.132,9.576-9.137,10.228c-0.872,0.106-2.396,0.218-3.156,0.218c-0.543,0-0.978,0.217-0.978,0.651
		c0,0.653,0.65,0.871,2.065,0.871c5.113,0,11.098-0.326,12.293-0.326c1.196,0,5.874,0.326,8.488,0.326
		c0.976,0,1.63-0.218,1.63-0.871c0-0.435-0.327-0.651-1.088-0.651h-1.087c-1.851,0-4.135-0.981-4.135-3.154
		c0-1.959,0.545-4.569,1.522-7.291l6.529-19.256c0.217-0.543,0.542-0.869,1.087-0.869h23.391c0.542,0,0.761,0.217,0.979,0.652
		l10.118,26.764c0.651,1.74,0,2.718-0.652,2.937c-0.436,0.106-0.763,0.326-0.763,0.761c0,0.653,1.196,0.653,3.265,0.762
		c7.506,0.218,15.447,0.218,17.08,0.218c1.197,0,2.175-0.218,2.175-0.871c0-0.543-0.436-0.651-1.088-0.651
		c-1.087,0-2.72-0.111-4.352-0.654c-2.284-0.651-5.439-2.393-9.356-12.075c-6.636-16.536-23.716-61.467-25.349-65.601
		c-1.306-3.372-1.739-3.917-2.393-3.917c-0.651,0-1.087,0.654-2.394,4.244L583.199,73.426z M598.432,49.384
		c-0.327,0-0.545-0.218-0.327-0.762l9.573-29.374c0.545-1.632,1.087-1.632,1.632,0l10.336,29.374
		c0.106,0.436,0.106,0.762-0.436,0.762H598.432z"/>
	<path clip-path="url(#SVGID_2_)" fill="#284C7A" d="M136.225,122.645c0,2.456,0,4.479,0.128,5.555
		c0.077,0.742,0.23,1.305,0.998,1.408c0.358,0.053,0.922,0.1,1.152,0.1c0.154,0,0.205,0.08,0.205,0.158
		c0,0.127-0.128,0.203-0.41,0.203c-1.407,0-3.021-0.076-3.149-0.076s-1.74,0.076-2.508,0.076c-0.282,0-0.41-0.052-0.41-0.203
		c0-0.078,0.051-0.158,0.204-0.158c0.231,0,0.539-0.047,0.769-0.1c0.512-0.104,0.64-0.666,0.742-1.408
		c0.128-1.076,0.128-3.099,0.128-5.555v-4.507c0-3.993,0-4.711-0.051-5.53c-0.051-0.871-0.307-1.306-0.87-1.435
		c-0.282-0.076-0.615-0.101-0.794-0.101c-0.102,0-0.205-0.051-0.205-0.156c0-0.151,0.128-0.203,0.409-0.203
		c0.846,0,2.458,0.076,2.586,0.076s1.742-0.076,2.51-0.076c0.281,0,0.409,0.052,0.409,0.203c0,0.105-0.102,0.156-0.205,0.156
		c-0.179,0-0.333,0.024-0.639,0.078c-0.692,0.127-0.896,0.561-0.948,1.457c-0.051,0.819-0.051,1.537-0.051,5.53V122.645z"/>
	<path clip-path="url(#SVGID_2_)" fill="#284C7A" d="M149.329,126.587c0.051,2.101,0.307,2.765,0.998,2.97
		c0.487,0.127,1.05,0.151,1.281,0.151c0.128,0,0.204,0.054,0.204,0.156c0,0.153-0.153,0.202-0.461,0.202
		c-1.459,0-2.483-0.075-2.713-0.075s-1.306,0.075-2.458,0.075c-0.256,0-0.41-0.024-0.41-0.202c0-0.103,0.077-0.156,0.205-0.156
		c0.205,0,0.666-0.024,1.05-0.151c0.64-0.181,0.767-0.922,0.767-3.252l0.026-14.67c0-0.998,0.077-1.279,0.282-1.279
		s0.64,0.562,0.896,0.818c0.384,0.435,4.199,4.559,8.142,8.78c2.534,2.715,5.325,5.838,6.144,6.683L163,113.63
		c-0.025-1.661-0.205-2.228-0.998-2.432c-0.461-0.101-1.05-0.128-1.255-0.128c-0.179,0-0.205-0.077-0.205-0.178
		c0-0.153,0.205-0.179,0.512-0.179c1.152,0,2.381,0.074,2.663,0.074c0.282,0,1.127-0.074,2.176-0.074
		c0.282,0,0.461,0.025,0.461,0.179c0,0.101-0.103,0.178-0.282,0.178c-0.128,0-0.306,0-0.614,0.079
		c-0.845,0.178-0.947,0.743-0.947,2.278l-0.052,15.002c0,1.688-0.051,1.817-0.23,1.817c-0.205,0-0.512-0.28-1.869-1.639
		c-0.281-0.255-3.968-4.02-6.682-6.939c-2.97-3.198-5.863-6.424-6.682-7.346L149.329,126.587z"/>
	<path clip-path="url(#SVGID_2_)" fill="#284C7A" d="M174.541,129.737c-0.358-0.181-0.384-0.281-0.384-0.975
		c0-1.28,0.103-2.303,0.128-2.713c0.026-0.282,0.077-0.409,0.205-0.409c0.154,0,0.179,0.075,0.179,0.282
		c0,0.229,0,0.586,0.077,0.947c0.384,1.893,2.074,2.608,3.789,2.608c2.458,0,3.661-1.765,3.661-3.403
		c0-1.767-0.742-2.791-2.944-4.609l-1.152-0.946c-2.714-2.228-3.329-3.815-3.329-5.554c0-2.741,2.049-4.61,5.3-4.61
		c0.998,0,1.741,0.103,2.381,0.257c0.486,0.104,0.692,0.129,0.896,0.129c0.205,0,0.256,0.049,0.256,0.178s-0.102,0.974-0.102,2.713
		c0,0.41-0.051,0.59-0.179,0.59c-0.154,0-0.179-0.129-0.205-0.334c-0.026-0.305-0.18-1-0.333-1.28
		c-0.154-0.28-0.845-1.354-3.201-1.354c-1.766,0-3.148,1.099-3.148,2.969c0,1.457,0.665,2.38,3.123,4.3l0.717,0.565
		c3.021,2.379,3.738,3.965,3.738,6.015c0,1.051-0.41,2.995-2.176,4.25c-1.101,0.769-2.484,1.073-3.866,1.073
		C176.769,130.424,175.59,130.249,174.541,129.737"/>
	<path clip-path="url(#SVGID_2_)" fill="#284C7A" d="M192.586,118.138c0-3.993,0-4.711-0.051-5.53
		c-0.052-0.871-0.256-1.281-1.101-1.457c-0.205-0.054-0.64-0.078-0.87-0.078c-0.103,0-0.205-0.051-0.205-0.155
		c0-0.151,0.128-0.203,0.409-0.203c1.152,0,2.714,0.073,2.944,0.073c0.231,0,1.767-0.073,2.535-0.073
		c0.281,0,0.409,0.052,0.409,0.203c0,0.104-0.102,0.155-0.204,0.155c-0.179,0-0.333,0.024-0.64,0.078
		c-0.691,0.101-0.896,0.562-0.948,1.457c-0.05,0.819-0.05,1.537-0.05,5.53v3.584c0,3.688,0.819,5.274,1.919,6.322
		c1.255,1.181,2.407,1.409,3.866,1.409c1.562,0,3.098-0.741,4.02-1.842c1.177-1.459,1.485-3.637,1.485-6.274v-3.199
		c0-3.993,0-4.711-0.051-5.53c-0.051-0.871-0.257-1.281-1.101-1.457c-0.205-0.054-0.64-0.078-0.871-0.078
		c-0.102,0-0.205-0.051-0.205-0.155c0-0.151,0.128-0.203,0.41-0.203c1.152,0,2.56,0.073,2.714,0.073c0.179,0,1.382-0.073,2.15-0.073
		c0.282,0,0.41,0.052,0.41,0.203c0,0.104-0.102,0.155-0.205,0.155c-0.179,0-0.333,0.024-0.64,0.078
		c-0.691,0.151-0.896,0.562-0.947,1.457c-0.051,0.819-0.051,1.537-0.051,5.53v2.74c0,2.765-0.308,5.836-2.356,7.653
		c-1.843,1.64-3.763,1.894-5.274,1.894c-0.87,0-3.456-0.101-5.273-1.815c-1.255-1.203-2.228-2.996-2.228-6.735V118.138z"/>
	<path clip-path="url(#SVGID_2_)" fill="#284C7A" d="M218.617,118.137c0-3.993,0-4.709-0.052-5.53
		c-0.05-0.871-0.255-1.278-1.1-1.457c-0.205-0.054-0.64-0.078-0.87-0.078c-0.103,0-0.205-0.051-0.205-0.153
		c0-0.154,0.128-0.203,0.409-0.203c1.152,0,2.765,0.074,2.893,0.074c0.282,0,2.227-0.074,3.021-0.074
		c1.613,0,3.328,0.152,4.685,1.125c0.641,0.462,1.767,1.713,1.767,3.481c0,1.896-0.793,3.789-3.098,5.914
		c2.099,2.688,3.84,4.968,5.325,6.554c1.382,1.461,2.483,1.741,3.124,1.844c0.485,0.076,0.844,0.076,0.998,0.076
		c0.128,0,0.231,0.078,0.231,0.156c0,0.15-0.154,0.202-0.615,0.202h-1.818c-1.434,0-2.074-0.127-2.739-0.485
		c-1.101-0.588-1.997-1.842-3.456-3.765c-1.076-1.407-2.279-3.123-2.791-3.787c-0.102-0.104-0.179-0.155-0.333-0.155l-3.148-0.049
		c-0.129,0-0.18,0.075-0.18,0.204v0.613c0,2.456,0,4.481,0.128,5.556c0.077,0.741,0.231,1.307,0.999,1.407
		c0.358,0.054,0.921,0.103,1.151,0.103c0.154,0,0.205,0.078,0.205,0.156c0,0.127-0.128,0.202-0.409,0.202
		c-1.408,0-3.021-0.075-3.149-0.075c-0.026,0-1.639,0.075-2.407,0.075c-0.281,0-0.409-0.052-0.409-0.202
		c0-0.078,0.051-0.156,0.204-0.156c0.231,0,0.538-0.049,0.769-0.103c0.512-0.101,0.64-0.666,0.742-1.407
		c0.128-1.074,0.128-3.1,0.128-5.556V118.137z M220.665,120.366c0,0.129,0.051,0.229,0.18,0.309c0.383,0.228,1.561,0.41,2.687,0.41
		c0.615,0,1.332-0.078,1.921-0.49c0.896-0.614,1.561-1.998,1.561-3.94c0-3.2-1.69-5.12-4.429-5.12c-0.768,0-1.46,0.075-1.715,0.153
		c-0.128,0.049-0.205,0.153-0.205,0.308V120.366z"/>
	<path clip-path="url(#SVGID_2_)" fill="#284C7A" d="M245.032,111.356c0.308-0.847,0.41-1,0.563-1c0.154,0,0.257,0.129,0.564,0.922
		c0.384,0.972,4.403,11.545,5.965,15.437c0.922,2.278,1.664,2.688,2.202,2.843c0.384,0.127,0.768,0.151,1.023,0.151
		c0.154,0,0.257,0.028,0.257,0.156c0,0.153-0.231,0.204-0.512,0.204c-0.384,0-2.253,0-4.02-0.051
		c-0.486-0.027-0.768-0.027-0.768-0.181c0-0.101,0.077-0.153,0.179-0.179c0.154-0.051,0.308-0.282,0.154-0.692l-2.381-6.297
		c-0.051-0.101-0.103-0.153-0.23-0.153h-5.505c-0.128,0-0.204,0.077-0.256,0.205l-1.536,4.53c-0.23,0.642-0.358,1.256-0.358,1.715
		c0,0.513,0.537,0.742,0.972,0.742h0.257c0.179,0,0.256,0.054,0.256,0.156c0,0.153-0.154,0.204-0.385,0.204
		c-0.614,0-1.715-0.078-1.996-0.078c-0.282,0-1.69,0.078-2.893,0.078c-0.333,0-0.487-0.051-0.487-0.204
		c0-0.103,0.103-0.156,0.231-0.156c0.179,0,0.537-0.024,0.742-0.05c1.178-0.153,1.69-1.128,2.151-2.407L245.032,111.356z
		 M247.695,121.593c0.128,0,0.128-0.075,0.103-0.178l-2.433-6.914c-0.128-0.384-0.256-0.384-0.384,0l-2.253,6.914
		c-0.051,0.127,0,0.178,0.077,0.178H247.695z"/>
	<path clip-path="url(#SVGID_2_)" fill="#284C7A" d="M263.257,126.587c0.051,2.101,0.307,2.765,0.998,2.97
		c0.487,0.127,1.05,0.151,1.28,0.151c0.128,0,0.205,0.054,0.205,0.156c0,0.153-0.153,0.202-0.461,0.202
		c-1.459,0-2.483-0.075-2.714-0.075c-0.23,0-1.305,0.075-2.457,0.075c-0.256,0-0.41-0.024-0.41-0.202
		c0-0.103,0.077-0.156,0.205-0.156c0.205,0,0.666-0.024,1.049-0.151c0.641-0.181,0.768-0.922,0.768-3.252l0.026-14.67
		c0-0.998,0.077-1.279,0.282-1.279s0.64,0.562,0.896,0.818c0.384,0.435,4.199,4.559,8.141,8.78c2.535,2.715,5.325,5.838,6.145,6.683
		l-0.282-13.007c-0.025-1.661-0.205-2.228-0.999-2.432c-0.46-0.101-1.049-0.128-1.254-0.128c-0.179,0-0.205-0.077-0.205-0.178
		c0-0.153,0.205-0.179,0.512-0.179c1.152,0,2.381,0.074,2.663,0.074c0.281,0,1.127-0.074,2.175-0.074
		c0.283,0,0.462,0.025,0.462,0.179c0,0.101-0.103,0.178-0.282,0.178c-0.128,0-0.307,0-0.614,0.079
		c-0.845,0.178-0.948,0.743-0.948,2.278l-0.051,15.002c0,1.688-0.051,1.817-0.231,1.817c-0.204,0-0.511-0.28-1.868-1.639
		c-0.282-0.255-3.968-4.02-6.682-6.939c-2.97-3.198-5.863-6.424-6.682-7.346L263.257,126.587z"/>
	<path clip-path="url(#SVGID_2_)" fill="#284C7A" d="M289.901,127.662c-2.483-2.228-3.098-5.146-3.098-7.577
		c0-1.716,0.589-4.712,2.868-6.99c1.536-1.536,3.866-2.74,7.809-2.74c1.024,0,2.457,0.078,3.712,0.308
		c0.972,0.181,1.792,0.332,2.611,0.386c0.282,0.024,0.333,0.127,0.333,0.28c0,0.205-0.077,0.513-0.128,1.435
		c-0.051,0.845-0.051,2.252-0.077,2.635c-0.026,0.386-0.077,0.537-0.231,0.537c-0.178,0-0.204-0.178-0.204-0.537
		c0-0.997-0.41-2.048-1.075-2.61c-0.896-0.769-2.868-1.459-5.121-1.459c-3.405,0-4.992,0.998-5.888,1.869
		c-1.869,1.791-2.304,4.071-2.304,6.683c0,4.889,3.763,9.371,9.242,9.371c1.92,0,3.43-0.232,4.454-1.281
		c0.538-0.563,0.871-1.69,0.948-2.151c0.051-0.281,0.102-0.384,0.256-0.384c0.128,0,0.179,0.179,0.179,0.384
		c0,0.18-0.307,2.406-0.563,3.278c-0.154,0.486-0.205,0.537-0.666,0.742c-1.024,0.409-2.97,0.588-4.608,0.588
		C294.51,130.426,291.924,129.477,289.901,127.662"/>
	<path clip-path="url(#SVGID_2_)" fill="#284C7A" d="M313.628,118.138c0-3.993,0-4.711-0.05-5.53
		c-0.052-0.871-0.257-1.281-1.101-1.457c-0.205-0.054-0.641-0.078-0.871-0.078c-0.103,0-0.205-0.051-0.205-0.155
		c0-0.151,0.128-0.203,0.41-0.203c0.588,0,1.28,0,1.843,0.026l1.05,0.047c0.179,0,5.274,0,5.862-0.021
		c0.487-0.025,0.896-0.076,1.102-0.13c0.127-0.024,0.23-0.127,0.357-0.127c0.078,0,0.103,0.103,0.103,0.231
		c0,0.177-0.128,0.486-0.205,1.201c-0.025,0.258-0.077,1.383-0.128,1.688c-0.025,0.129-0.076,0.282-0.179,0.282
		c-0.154,0-0.205-0.127-0.205-0.331c0-0.179-0.025-0.615-0.154-0.922c-0.179-0.41-0.434-0.718-1.817-0.872
		c-0.435-0.051-3.226-0.075-3.507-0.075c-0.103,0-0.154,0.075-0.154,0.256v7.065c0,0.179,0.026,0.257,0.154,0.257
		c0.332,0,3.481,0,4.07-0.052c0.615-0.051,0.973-0.103,1.203-0.358c0.18-0.205,0.282-0.332,0.385-0.332
		c0.077,0,0.128,0.049,0.128,0.205c0,0.153-0.128,0.588-0.205,1.433c-0.052,0.512-0.103,1.461-0.103,1.641
		c0,0.205,0,0.484-0.179,0.484c-0.128,0-0.179-0.103-0.179-0.232c0-0.252,0-0.51-0.103-0.842c-0.102-0.358-0.332-0.793-1.331-0.897
		c-0.691-0.076-3.226-0.127-3.66-0.127c-0.129,0-0.18,0.075-0.18,0.179v2.254c0,0.871-0.026,3.84,0,4.377
		c0.077,1.766,0.461,2.098,2.97,2.098c0.665,0,1.792,0,2.457-0.28c0.666-0.28,0.973-0.795,1.152-1.843
		c0.052-0.282,0.103-0.385,0.23-0.385c0.154,0,0.154,0.205,0.154,0.385c0,0.205-0.204,1.945-0.332,2.482
		c-0.179,0.666-0.385,0.666-1.383,0.666c-1.92,0-3.328-0.052-4.326-0.076c-0.999-0.051-1.613-0.076-1.997-0.076
		c-0.052,0-0.487,0-1.025,0.025c-0.511,0-1.1,0.051-1.485,0.051c-0.281,0-0.409-0.051-0.409-0.203c0-0.08,0.051-0.157,0.205-0.157
		c0.23,0,0.538-0.049,0.768-0.101c0.512-0.103,0.64-0.666,0.743-1.408c0.127-1.075,0.127-3.098,0.127-5.555V118.138z"/>
	<path clip-path="url(#SVGID_2_)" fill="#284C7A" d="M344.344,127.662c-2.483-2.228-3.098-5.146-3.098-7.577
		c0-1.716,0.589-4.712,2.868-6.99c1.535-1.536,3.865-2.74,7.808-2.74c1.024,0,2.458,0.078,3.712,0.308
		c0.973,0.181,1.793,0.332,2.611,0.386c0.282,0.024,0.334,0.127,0.334,0.28c0,0.205-0.078,0.513-0.13,1.435
		c-0.05,0.845-0.05,2.252-0.075,2.635c-0.026,0.386-0.078,0.537-0.23,0.537c-0.18,0-0.205-0.178-0.205-0.537
		c0-0.997-0.41-2.048-1.075-2.61c-0.896-0.769-2.868-1.459-5.121-1.459c-3.405,0-4.992,0.998-5.888,1.869
		c-1.869,1.791-2.305,4.071-2.305,6.683c0,4.889,3.764,9.371,9.242,9.371c1.921,0,3.432-0.232,4.455-1.281
		c0.536-0.563,0.869-1.69,0.947-2.151c0.051-0.281,0.102-0.384,0.255-0.384c0.13,0,0.181,0.179,0.181,0.384
		c0,0.18-0.308,2.406-0.564,3.278c-0.152,0.486-0.203,0.537-0.665,0.742c-1.023,0.409-2.97,0.588-4.608,0.588
		C348.951,130.426,346.365,129.477,344.344,127.662"/>
	<path clip-path="url(#SVGID_2_)" fill="#284C7A" d="M374.985,110.354c5.76,0,10.06,3.638,10.06,9.601
		c0,5.733-4.044,10.472-10.214,10.472c-7.016,0-9.934-5.451-9.934-10.062C364.897,116.219,367.918,110.354,374.985,110.354
		 M375.522,129.455c2.304,0,7.064-1.334,7.064-8.78c0-6.146-3.737-9.448-7.782-9.448c-4.274,0-7.476,2.815-7.476,8.421
		C367.329,125.613,370.914,129.455,375.522,129.455"/>
	<path clip-path="url(#SVGID_2_)" fill="#284C7A" d="M413.33,126.766c0.103,0.922,0.279,2.354,1.382,2.713
		c0.741,0.229,1.407,0.229,1.662,0.229c0.131,0,0.204,0.029,0.204,0.13c0,0.155-0.229,0.231-0.536,0.231
		c-0.563,0-3.326-0.076-4.274-0.156c-0.59-0.047-0.718-0.126-0.718-0.252c0-0.104,0.052-0.155,0.18-0.182
		c0.128-0.025,0.153-0.459,0.104-0.92l-1.231-13.212h-0.077l-6.271,13.313c-0.537,1.126-0.614,1.357-0.846,1.357
		c-0.18,0-0.308-0.257-0.793-1.179c-0.667-1.257-2.869-5.683-2.996-5.938c-0.229-0.461-3.098-6.606-3.38-7.297h-0.102l-1.023,11.879
		c-0.026,0.41-0.026,0.871-0.026,1.305c0,0.384,0.281,0.718,0.667,0.793c0.435,0.104,0.817,0.127,0.972,0.127
		c0.104,0,0.206,0.054,0.206,0.13c0,0.181-0.155,0.231-0.463,0.231c-0.945,0-2.174-0.076-2.379-0.076
		c-0.231,0-1.46,0.076-2.151,0.076c-0.256,0-0.435-0.051-0.435-0.231c0-0.076,0.128-0.13,0.256-0.13c0.205,0,0.384,0,0.767-0.075
		c0.846-0.153,0.922-1.149,1.026-2.125l1.841-16.69c0.028-0.281,0.13-0.461,0.283-0.461c0.152,0,0.255,0.1,0.384,0.385l7.834,16.101
		l7.527-16.075c0.102-0.23,0.205-0.41,0.385-0.41c0.177,0,0.255,0.205,0.304,0.69L413.33,126.766z"/>
	<path clip-path="url(#SVGID_2_)" fill="#284C7A" d="M424.457,118.138c0-3.993,0-4.711-0.05-5.53
		c-0.05-0.871-0.255-1.281-1.099-1.457c-0.205-0.054-0.64-0.078-0.872-0.078c-0.104,0-0.206-0.051-0.206-0.155
		c0-0.151,0.13-0.203,0.411-0.203c1.152,0,2.689,0.073,2.894,0.073c0.563,0,2.047-0.073,3.226-0.073
		c3.198,0,4.351,1.073,4.761,1.459c0.565,0.537,1.28,1.69,1.28,3.045c0,3.638-2.662,6.095-6.297,6.095c-0.127,0-0.41,0-0.537-0.025
		c-0.13,0-0.282-0.051-0.282-0.18c0-0.205,0.152-0.229,0.692-0.229c2.481,0,4.427-1.817,4.427-4.177c0-0.842-0.076-2.557-1.433-3.94
		c-1.357-1.383-2.921-1.278-3.508-1.278c-0.434,0-0.872,0.051-1.102,0.151c-0.153,0.054-0.205,0.231-0.205,0.485v10.525
		c0,2.457,0,4.479,0.13,5.555c0.075,0.742,0.23,1.306,0.998,1.408c0.357,0.052,0.922,0.101,1.152,0.101
		c0.151,0,0.203,0.077,0.203,0.157c0,0.127-0.126,0.203-0.408,0.203c-1.407,0-3.023-0.076-3.15-0.076
		c-0.078,0-1.688,0.076-2.457,0.076c-0.283,0-0.41-0.051-0.41-0.203c0-0.08,0.054-0.157,0.205-0.157
		c0.231,0,0.537-0.049,0.769-0.101c0.512-0.103,0.64-0.666,0.741-1.408c0.127-1.075,0.127-3.098,0.127-5.555V118.138z"/>
	<path clip-path="url(#SVGID_2_)" fill="#284C7A" d="M446.729,111.356c0.308-0.847,0.408-1,0.562-1s0.256,0.129,0.563,0.922
		c0.385,0.972,4.403,11.545,5.967,15.437c0.92,2.278,1.662,2.688,2.202,2.843c0.382,0.127,0.767,0.151,1.021,0.151
		c0.155,0,0.259,0.028,0.259,0.156c0,0.153-0.232,0.204-0.514,0.204c-0.385,0-2.254,0-4.019-0.051
		c-0.487-0.027-0.769-0.027-0.769-0.181c0-0.101,0.077-0.153,0.179-0.179c0.154-0.051,0.308-0.282,0.154-0.692l-2.383-6.297
		c-0.049-0.101-0.101-0.153-0.229-0.153h-5.506c-0.127,0-0.204,0.077-0.257,0.205l-1.533,4.53c-0.23,0.642-0.357,1.256-0.357,1.715
		c0,0.513,0.537,0.742,0.971,0.742h0.255c0.181,0,0.259,0.054,0.259,0.156c0,0.153-0.155,0.204-0.386,0.204
		c-0.614,0-1.715-0.078-1.998-0.078c-0.281,0-1.688,0.078-2.891,0.078c-0.333,0-0.488-0.051-0.488-0.204
		c0-0.103,0.104-0.156,0.231-0.156c0.179,0,0.537-0.024,0.742-0.05c1.177-0.153,1.688-1.128,2.151-2.407L446.729,111.356z
		 M449.392,121.593c0.128,0,0.128-0.075,0.104-0.178l-2.433-6.914c-0.128-0.384-0.258-0.384-0.387,0l-2.252,6.914
		c-0.053,0.127,0,0.178,0.078,0.178H449.392z"/>
	<path clip-path="url(#SVGID_2_)" fill="#284C7A" d="M464.952,126.587c0.053,2.101,0.308,2.765,1,2.97
		c0.483,0.127,1.05,0.151,1.278,0.151c0.128,0,0.205,0.054,0.205,0.156c0,0.153-0.153,0.202-0.463,0.202
		c-1.458,0-2.48-0.075-2.71-0.075c-0.23,0-1.308,0.075-2.46,0.075c-0.255,0-0.408-0.024-0.408-0.202
		c0-0.103,0.075-0.156,0.204-0.156c0.204,0,0.665-0.024,1.048-0.151c0.644-0.181,0.771-0.922,0.771-3.252l0.024-14.67
		c0-0.998,0.078-1.279,0.281-1.279c0.207,0,0.642,0.562,0.897,0.818c0.385,0.435,4.198,4.559,8.141,8.78
		c2.535,2.715,5.327,5.838,6.145,6.683l-0.28-13.007c-0.027-1.661-0.205-2.228-1-2.432c-0.46-0.101-1.05-0.128-1.255-0.128
		c-0.179,0-0.205-0.077-0.205-0.178c0-0.153,0.205-0.179,0.513-0.179c1.152,0,2.38,0.074,2.662,0.074s1.128-0.074,2.175-0.074
		c0.285,0,0.462,0.025,0.462,0.179c0,0.101-0.103,0.178-0.279,0.178c-0.131,0-0.309,0-0.615,0.079
		c-0.845,0.178-0.947,0.743-0.947,2.278l-0.052,15.002c0,1.688-0.051,1.817-0.231,1.817c-0.205,0-0.512-0.28-1.867-1.639
		c-0.282-0.255-3.97-4.02-6.683-6.939c-2.971-3.198-5.863-6.424-6.682-7.346L464.952,126.587z"/>
	<path clip-path="url(#SVGID_2_)" fill="#284C7A" d="M494.646,123.437c0-1.383-0.259-1.944-0.591-2.688
		c-0.181-0.411-3.608-6.042-4.508-7.374c-0.638-0.946-1.278-1.586-1.738-1.893c-0.386-0.257-0.87-0.41-1.1-0.41
		c-0.13,0-0.258-0.052-0.258-0.181c0-0.103,0.102-0.179,0.333-0.179c0.487,0,2.406,0.076,2.534,0.076
		c0.181,0,1.151-0.076,2.151-0.076c0.279,0,0.333,0.076,0.333,0.179s-0.155,0.129-0.387,0.231c-0.204,0.103-0.332,0.254-0.332,0.46
		c0,0.309,0.128,0.616,0.332,0.999c0.412,0.742,4.25,7.349,4.713,8.091c0.485-1.076,3.737-6.681,4.25-7.527
		c0.332-0.538,0.435-0.973,0.435-1.308c0-0.355-0.103-0.639-0.409-0.715c-0.23-0.078-0.385-0.129-0.385-0.256
		c0-0.103,0.154-0.154,0.408-0.154c0.668,0,1.486,0.076,1.691,0.076c0.155,0,1.997-0.076,2.484-0.076
		c0.18,0,0.333,0.052,0.333,0.154c0,0.127-0.128,0.205-0.333,0.205c-0.282,0-0.769,0.101-1.178,0.358
		c-0.512,0.306-0.795,0.612-1.356,1.306c-0.847,1.022-4.431,7.039-4.891,8.141c-0.385,0.921-0.385,1.716-0.385,2.56v2.203
		c0,0.41,0,1.485,0.078,2.56c0.05,0.742,0.28,1.305,1.049,1.408c0.358,0.053,0.92,0.101,1.153,0.101
		c0.153,0,0.202,0.079,0.202,0.157c0,0.127-0.127,0.203-0.406,0.203c-1.411,0-3.023-0.076-3.151-0.076
		c-0.127,0-1.741,0.076-2.51,0.076c-0.282,0-0.41-0.052-0.41-0.203c0-0.078,0.054-0.157,0.205-0.157
		c0.231,0,0.537-0.048,0.769-0.101c0.513-0.104,0.741-0.666,0.795-1.408c0.078-1.074,0.078-2.149,0.078-2.56V123.437z"/>
	<path clip-path="url(#SVGID_2_)" fill="#284C7A" d="M525.615,122.695c0,3.765,0.103,5.401,0.562,5.863
		c0.411,0.408,1.076,0.588,3.073,0.588c1.357,0,2.484-0.024,3.098-0.767c0.332-0.412,0.588-1.049,0.665-1.538
		c0.026-0.206,0.079-0.333,0.231-0.333c0.128,0,0.151,0.103,0.151,0.386c0,0.28-0.177,1.819-0.383,2.562
		c-0.179,0.588-0.256,0.688-1.61,0.688c-1.846,0-3.176-0.052-4.252-0.076c-1.075-0.051-1.867-0.075-2.61-0.075
		c-0.102,0-0.537,0.024-1.05,0.024c-0.513,0.026-1.074,0.051-1.459,0.051c-0.283,0-0.41-0.051-0.41-0.202
		c0-0.078,0.053-0.156,0.205-0.156c0.228,0,0.537-0.049,0.768-0.103c0.512-0.101,0.64-0.666,0.742-1.407
		c0.127-1.074,0.127-3.099,0.127-5.556v-4.507c0-3.993,0-4.711-0.05-5.53c-0.05-0.871-0.255-1.278-1.1-1.457
		c-0.205-0.054-0.64-0.078-0.872-0.078c-0.103,0-0.205-0.051-0.205-0.153c0-0.153,0.13-0.203,0.408-0.203
		c1.153,0,2.766,0.074,2.896,0.074c0.128,0,1.998-0.074,2.763-0.074c0.282,0,0.412,0.05,0.412,0.203
		c0,0.103-0.103,0.153-0.205,0.153c-0.18,0-0.539,0.024-0.845,0.078c-0.742,0.127-0.947,0.563-1,1.457
		c-0.05,0.819-0.05,1.537-0.05,5.53V122.695z"/>
	<path clip-path="url(#SVGID_2_)" fill="#284C7A" d="M544.07,122.645c0,2.456,0,4.479,0.127,5.555
		c0.078,0.742,0.229,1.305,0.998,1.408c0.358,0.053,0.922,0.1,1.151,0.1c0.155,0,0.204,0.08,0.204,0.158
		c0,0.127-0.127,0.203-0.409,0.203c-1.406,0-3.019-0.076-3.146-0.076c-0.13,0-1.742,0.076-2.51,0.076
		c-0.282,0-0.41-0.052-0.41-0.203c0-0.078,0.053-0.158,0.205-0.158c0.229,0,0.538-0.047,0.768-0.1
		c0.512-0.104,0.639-0.666,0.742-1.408c0.128-1.076,0.128-3.099,0.128-5.555v-4.507c0-3.993,0-4.711-0.05-5.53
		c-0.051-0.871-0.309-1.306-0.87-1.435c-0.281-0.076-0.616-0.101-0.795-0.101c-0.104,0-0.205-0.051-0.205-0.156
		c0-0.151,0.13-0.203,0.41-0.203c0.845,0,2.457,0.076,2.587,0.076c0.128,0,1.74-0.076,2.507-0.076c0.283,0,0.41,0.052,0.41,0.203
		c0,0.105-0.104,0.156-0.205,0.156c-0.177,0-0.332,0.024-0.64,0.078c-0.689,0.127-0.895,0.561-0.947,1.457
		c-0.05,0.819-0.05,1.537-0.05,5.53V122.645z"/>
	<path clip-path="url(#SVGID_2_)" fill="#284C7A" d="M575.53,126.766c0.103,0.922,0.281,2.354,1.382,2.713
		c0.743,0.229,1.41,0.229,1.665,0.229c0.128,0,0.205,0.029,0.205,0.13c0,0.155-0.231,0.231-0.537,0.231
		c-0.563,0-3.33-0.076-4.276-0.156c-0.588-0.047-0.716-0.126-0.716-0.252c0-0.104,0.048-0.155,0.177-0.182
		c0.13-0.025,0.156-0.459,0.104-0.92l-1.229-13.212h-0.077l-6.271,13.313c-0.538,1.126-0.615,1.357-0.845,1.357
		c-0.182,0-0.31-0.257-0.795-1.179c-0.665-1.257-2.867-5.683-2.995-5.938c-0.23-0.461-3.101-6.606-3.379-7.297h-0.103l-1.025,11.879
		c-0.024,0.41-0.024,0.871-0.024,1.305c0,0.384,0.282,0.718,0.664,0.793c0.435,0.104,0.82,0.127,0.971,0.127
		c0.104,0,0.207,0.054,0.207,0.13c0,0.181-0.153,0.231-0.46,0.231c-0.948,0-2.177-0.076-2.382-0.076
		c-0.231,0-1.458,0.076-2.151,0.076c-0.256,0-0.434-0.051-0.434-0.231c0-0.076,0.128-0.13,0.255-0.13c0.205,0,0.383,0,0.771-0.075
		c0.845-0.153,0.919-1.149,1.021-2.125l1.844-16.69c0.026-0.281,0.128-0.461,0.281-0.461c0.155,0,0.256,0.1,0.384,0.385
		l7.834,16.101l7.527-16.075c0.102-0.23,0.205-0.41,0.385-0.41s0.254,0.205,0.308,0.69L575.53,126.766z"/>
	<path clip-path="url(#SVGID_2_)" fill="#284C7A" d="M588.811,122.645c0,2.456,0,4.479,0.13,5.555
		c0.075,0.742,0.229,1.305,0.998,1.408c0.356,0.053,0.922,0.1,1.151,0.1c0.153,0,0.203,0.08,0.203,0.158
		c0,0.127-0.127,0.203-0.408,0.203c-1.406,0-3.021-0.076-3.148-0.076c-0.128,0-1.74,0.076-2.51,0.076
		c-0.28,0-0.408-0.052-0.408-0.203c0-0.078,0.051-0.158,0.203-0.158c0.23,0,0.54-0.047,0.768-0.1
		c0.515-0.104,0.642-0.666,0.744-1.408c0.128-1.076,0.128-3.099,0.128-5.555v-4.507c0-3.993,0-4.711-0.05-5.53
		c-0.053-0.871-0.308-1.306-0.873-1.435c-0.281-0.076-0.616-0.101-0.792-0.101c-0.104,0-0.205-0.051-0.205-0.156
		c0-0.151,0.128-0.203,0.41-0.203c0.845,0,2.457,0.076,2.585,0.076c0.127,0,1.742-0.076,2.509-0.076c0.283,0,0.41,0.052,0.41,0.203
		c0,0.105-0.104,0.156-0.205,0.156c-0.18,0-0.332,0.024-0.64,0.078c-0.692,0.127-0.897,0.561-0.947,1.457
		c-0.053,0.819-0.053,1.537-0.053,5.53V122.645z"/>
	<path clip-path="url(#SVGID_2_)" fill="#284C7A" d="M606.678,122.645c0,2.456,0,4.479,0.128,5.555c0.077,0.742,0.231,1.305,1,1.408
		c0.356,0.053,0.922,0.1,1.151,0.1c0.153,0,0.203,0.08,0.203,0.158c0,0.127-0.129,0.203-0.407,0.203
		c-1.41,0-3.022-0.076-3.149-0.076c-0.128,0-1.743,0.076-2.51,0.076c-0.28,0-0.41-0.052-0.41-0.203c0-0.078,0.053-0.158,0.205-0.158
		c0.228,0,0.537-0.047,0.768-0.1c0.512-0.104,0.642-0.666,0.744-1.408c0.128-1.076,0.128-3.099,0.128-5.555v-10.83l-3.789,0.051
		c-1.588,0.026-2.204,0.205-2.612,0.817c-0.28,0.438-0.357,0.615-0.436,0.796c-0.077,0.204-0.153,0.256-0.255,0.256
		c-0.077,0-0.13-0.076-0.13-0.232c0-0.254,0.513-2.457,0.564-2.661c0.051-0.151,0.153-0.485,0.256-0.485
		c0.18,0,0.435,0.256,1.127,0.307c0.74,0.078,1.715,0.127,2.022,0.127h9.601c0.82,0,1.405-0.049,1.817-0.127
		c0.384-0.051,0.615-0.127,0.716-0.127c0.128,0,0.128,0.154,0.128,0.306c0,0.769-0.076,2.534-0.076,2.817
		c0,0.229-0.075,0.334-0.18,0.334c-0.128,0-0.178-0.078-0.204-0.438l-0.026-0.28c-0.075-0.77-0.689-1.357-3.146-1.408l-3.228-0.051
		V122.645z"/>
	<path clip-path="url(#SVGID_2_)" fill="#284C7A" d="M622.213,118.138c0-3.993,0-4.711-0.051-5.53
		c-0.053-0.871-0.258-1.281-1.102-1.457c-0.201-0.054-0.64-0.078-0.87-0.078c-0.102,0-0.206-0.051-0.206-0.155
		c0-0.151,0.128-0.203,0.411-0.203c0.589,0,1.28,0,1.844,0.026l1.051,0.047c0.178,0,5.272,0,5.86-0.021
		c0.489-0.025,0.896-0.076,1.102-0.13c0.13-0.024,0.232-0.127,0.357-0.127c0.08,0,0.104,0.103,0.104,0.231
		c0,0.177-0.127,0.486-0.205,1.201c-0.024,0.258-0.077,1.383-0.127,1.688c-0.027,0.129-0.077,0.282-0.181,0.282
		c-0.154,0-0.204-0.127-0.204-0.331c0-0.179-0.025-0.615-0.152-0.922c-0.181-0.41-0.438-0.718-1.82-0.872
		c-0.435-0.051-3.225-0.075-3.507-0.075c-0.103,0-0.153,0.075-0.153,0.256v7.065c0,0.179,0.026,0.257,0.153,0.257
		c0.333,0,3.482,0,4.072-0.052c0.611-0.051,0.972-0.103,1.202-0.358c0.18-0.205,0.281-0.332,0.385-0.332
		c0.075,0,0.128,0.049,0.128,0.205c0,0.153-0.128,0.588-0.205,1.433c-0.053,0.512-0.103,1.461-0.103,1.641
		c0,0.205,0,0.484-0.181,0.484c-0.127,0-0.177-0.103-0.177-0.232c0-0.252,0-0.51-0.104-0.842c-0.102-0.358-0.335-0.793-1.332-0.897
		c-0.691-0.076-3.224-0.127-3.661-0.127c-0.128,0-0.179,0.075-0.179,0.179v2.254c0,0.871-0.026,3.84,0,4.377
		c0.076,1.766,0.46,2.098,2.971,2.098c0.665,0,1.792,0,2.457-0.28s0.973-0.795,1.151-1.843c0.05-0.282,0.104-0.385,0.23-0.385
		c0.154,0,0.154,0.205,0.154,0.385c0,0.205-0.204,1.945-0.335,2.482c-0.177,0.666-0.384,0.666-1.382,0.666
		c-1.92,0-3.327-0.052-4.327-0.076c-0.997-0.051-1.611-0.076-1.994-0.076c-0.053,0-0.487,0-1.024,0.025
		c-0.513,0-1.104,0.051-1.486,0.051c-0.281,0-0.409-0.051-0.409-0.203c0-0.08,0.051-0.157,0.205-0.157
		c0.23,0,0.537-0.049,0.768-0.101c0.513-0.103,0.642-0.666,0.743-1.408c0.127-1.075,0.127-3.098,0.127-5.555V118.138z"/>
	<path clip-path="url(#SVGID_2_)" fill="#284C7A" d="M641.128,118.137c0-3.993,0-4.711-0.05-5.53
		c-0.053-0.87-0.258-1.278-1.104-1.457c-0.203-0.054-0.64-0.077-0.87-0.077c-0.102,0-0.204-0.052-0.204-0.154
		c0-0.153,0.128-0.204,0.409-0.204c1.153,0,2.766,0.075,2.896,0.075c0.304,0,1.92-0.075,3.454-0.075
		c2.535,0,7.222-0.23,10.267,2.917c1.279,1.334,2.484,3.457,2.484,6.504c0,3.224-1.332,5.709-2.766,7.22
		c-1.102,1.151-3.406,2.943-7.76,2.943c-1.098,0-2.457-0.077-3.555-0.154c-1.128-0.076-1.998-0.151-2.125-0.151
		c-0.053,0-0.486,0-1.025,0.024c-0.512,0-1.102,0.051-1.484,0.051c-0.282,0-0.41-0.051-0.41-0.202c0-0.078,0.05-0.156,0.205-0.156
		c0.229,0,0.538-0.049,0.768-0.103c0.512-0.101,0.639-0.666,0.742-1.407c0.128-1.074,0.128-3.099,0.128-5.556V118.137z
		 M643.28,120.902c0,2.716,0.022,5.069,0.05,5.558c0.023,0.64,0.077,1.662,0.282,1.945c0.332,0.485,1.33,1.023,4.352,1.023
		c2.382,0,4.582-0.87,6.094-2.381c1.329-1.305,2.047-3.764,2.047-6.121c0-3.25-1.406-5.348-2.456-6.45
		c-2.407-2.535-5.327-2.892-8.371-2.892c-0.514,0-1.46,0.076-1.665,0.178c-0.23,0.104-0.31,0.232-0.31,0.513
		c-0.022,0.871-0.022,3.481-0.022,5.453V120.902z"/>
	<rect x="132.353" y="100.26" clip-path="url(#SVGID_2_)" fill="#284C7A" width="525.858" height="1.278"/>
</g>
</svg>
