<?xml version="1.0" encoding="utf-8"?>
<!-- Generator: Adobe Illustrator 25.0.0, SVG Export Plug-In . SVG Version: 6.00 Build 0)  -->
<svg version="1.1" id="Layer_1" xmlns="http://www.w3.org/2000/svg" xmlns:xlink="http://www.w3.org/1999/xlink" x="0px" y="0px"
	 viewBox="0 0 60 40" style="enable-background:new 0 0 60 40;" xml:space="preserve">
<style type="text/css">
	.st0{fill-rule:evenodd;clip-rule:evenodd;fill:#212446;}
</style>
<g>
	<path class="st0" d="M9.6,20.3c0.6,0.1,1,0.3,1.4,0.5c0.1,0,0.2,0.1,0.2,0.2c0,0.5,0,1,0,1.5L11,22.4c-0.8-0.5-1.5-0.8-2.4-0.8
		c-0.2,0-0.3,0-0.5,0.1c-0.8,0.2-0.8,0.9-0.4,1.3c0.2,0.2,0.5,0.3,0.7,0.5c0.6,0.3,1.2,0.7,1.7,0.9c0.2,0.1,0.4,0.3,0.6,0.4
		c1.3,0.9,1.1,3.1-0.5,3.9c-1,0.4-2,0.5-3.2,0.3c-0.6-0.1-1.1-0.3-1.6-0.5c-0.1,0-0.2-0.1-0.2-0.1c0-0.6,0-1.1,0-1.6
		C5.5,27,5.8,27.1,6,27.2c0.8,0.3,1.5,0.5,2.3,0.3c0.4-0.1,0.8-0.4,0.8-0.7c0.1-0.4-0.1-0.8-0.5-0.9c-0.3-0.2-0.7-0.4-0.9-0.5
		l-0.6-0.3c-0.5-0.2-0.8-0.5-1.3-0.8c-0.9-0.8-1.1-1.9-0.6-3c0.3-0.6,0.8-0.9,1.4-1.1C7.9,20.1,8.7,20.1,9.6,20.3L9.6,20.3z
		 M19.7,21.4v7.2h-2.2v-1c-0.2,0.2-0.4,0.4-0.6,0.6c-0.3,0.3-0.7,0.6-1,0.7c-0.9,0.2-1.6,0-2.3-0.7c-0.3-0.3-0.6-0.6-0.8-0.8
		c-0.8-1-0.8-2.1-0.7-3.2c0.2-1.2,1-1.9,2-2.3c0.8-0.4,1.5-0.5,2.3-0.6C17.7,21.2,18.7,21.3,19.7,21.4z M41.5,21.3L41.5,21.3
		c0.2,0,0.5,0,0.5,0.1c0.1,0.1,0,0.4,0,0.6v3.3v3.6h-2.1v-1c-0.2,0.2-0.4,0.3-0.5,0.5c-1.1,1-2.5,1-3.7-0.1c-0.9-1-1.3-2.1-1.2-3.5
		c0.1-1.1,0.6-2,1.5-2.5c0.6-0.4,1.1-0.6,1.7-0.7C39,21.2,40.3,21.2,41.5,21.3L41.5,21.3z M31.7,18.5v2.6h1.5v1.7h-1.5
		c0,0.3,0,0.5,0,0.7v2.6v0.1c0.2,0.7,0.7,1,1.3,0.8c0.3-0.1,0.7-0.3,0.9-0.4l0.2,1.3v0.1c0.1,0.5,0.1,0.5-0.4,0.7
		c-0.8,0.3-1.5,0.5-2.3,0.1c-1-0.4-1.6-1.1-1.7-2.2c0-0.2,0-0.5,0-0.7v-3.7v-3.9H31.7L31.7,18.5z M53.6,21.4
		c0.3,0.1,0.5,0.4,0.7,0.6c0.6,0.6,0.8,1.3,0.8,2c0,1.5,0,3.1,0,4.6v0.1h-2.1v-0.2c0-1.3,0-2.6,0-3.9c0-0.3,0-0.7-0.1-0.9
		c0-0.2-0.1-0.3-0.1-0.4c-0.2-0.4-0.6-0.6-0.9-0.5c-0.5,0.1-0.8,0.4-1.2,0.8c-0.2,0.2-0.3,0.4-0.3,0.7c0,1.4,0,2.9,0,4.3v0.3h-2.2
		v-0.3c0-1.4,0-2.9,0-4.3c0-0.2,0-0.5-0.1-0.7c-0.1-0.6-0.6-0.8-1.1-0.8c-0.2,0.1-0.5,0.2-0.6,0.3c-0.3,0.2-0.5,0.5-0.8,0.8
		c-0.1,0.1-0.1,0.2-0.1,0.4v2.2v2.4h-2.1v-7.3h2v1.2c0.1-0.1,0.1-0.2,0.2-0.2c0.8-1,1.6-1.4,2.8-1.2c0.6,0.1,0.9,0.5,1.2,0.8
		c0.1,0.1,0.2,0.3,0.3,0.4c0.4-0.5,0.8-0.8,1.3-1.1C52,21.2,52.8,21.2,53.6,21.4z M26.5,21.3c0.4,0.1,0.7,0.3,0.9,0.6
		c0.6,0.6,0.8,1.2,0.8,2c0,1.6,0,3.3,0,4.9c0,0,0,0,0,0.1h-2.2v-0.3c0-1.4,0-2.9,0-4.3c0-0.2,0-0.5-0.1-0.7c-0.2-0.5-0.6-0.8-1-0.7
		c-0.4,0-0.7,0.2-0.9,0.4l-0.6,0.6c-0.1,0.1-0.2,0.2-0.3,0.3c-0.1,0.1-0.1,0.2-0.1,0.3v2.1v2.3H21v-7.3h2.1v1.2
		c0.2-0.2,0.4-0.3,0.6-0.5c0.3-0.2,0.7-0.5,0.9-0.7C25.3,21.2,25.9,21.2,26.5,21.3L26.5,21.3z M38.8,22.6c-0.4,0-0.7,0.2-0.9,0.4
		c-0.8,0.7-1.1,1.4-1.1,2.4c0,0.5,0.1,0.9,0.5,1.3c0.4,0.5,0.9,0.8,1.4,0.6c0.4-0.1,0.8-0.4,1.1-0.6c0.1-0.1,0.2-0.2,0.2-0.3
		c0-1.2,0-2.3,0-3.6v-0.2C39.6,22.6,39.2,22.6,38.8,22.6L38.8,22.6z M16.8,22.6c-1,0.1-1.7,0.6-2.1,1.5c-0.2,0.5-0.2,0.9-0.2,1.4
		c0,0.5,0.2,0.8,0.5,1.2s0.8,0.6,1.3,0.5c0.5-0.1,0.8-0.4,1.2-0.6c0.1-0.1,0.2-0.2,0.2-0.4c0-1.2,0-2.3,0-3.6v-0.2
		C17.3,22.6,17.1,22.6,16.8,22.6z M31.7,10.9v0.5c4,0.2,8.1,0.9,11.9,2.3s7.4,3.3,10.7,5.7c-0.4-0.2-0.8-0.4-1.2-0.6
		c-1.2-0.5-2.5-0.8-3.9-1c-1.3-0.2-2.6-0.4-3.9-0.3c-1.8,0.1-3.7,0.4-5.4,1.1c-0.5,0.2-0.8,0.5-1.3,0.7c-0.1,0-0.2,0.1-0.3,0
		c-1.5-0.8-3.2-1.2-4.9-1.4c-2-0.3-3.9-0.4-6-0.1c-2.1,0.3-3.9,0.8-5.8,1.6c-0.2,0.1-0.3,0-0.4-0.1c-0.8-0.6-1.8-0.9-2.7-1.2
		c-1.7-0.5-3.6-0.7-5.3-0.6c-2,0.1-3.9,0.5-5.8,1.1c-0.5,0.2-1,0.4-1.6,0.7c6.9-5.2,14.8-7.8,23.5-8c0-0.1,0-0.2,0-0.2
		c0-0.1,0-0.1,0-0.2H31.7L31.7,10.9z"/>
</g>
</svg>
